%TF.GenerationSoftware,KiCad,Pcbnew,7.0.10*%
%TF.CreationDate,2024-05-01T10:45:41+02:00*%
%TF.ProjectId,talon,74616c6f-6e2e-46b6-9963-61645f706362,rev?*%
%TF.SameCoordinates,Original*%
%TF.FileFunction,Legend,Bot*%
%TF.FilePolarity,Positive*%
%FSLAX46Y46*%
G04 Gerber Fmt 4.6, Leading zero omitted, Abs format (unit mm)*
G04 Created by KiCad (PCBNEW 7.0.10) date 2024-05-01 10:45:41*
%MOMM*%
%LPD*%
G01*
G04 APERTURE LIST*
%ADD10C,0.150000*%
%ADD11C,0.381000*%
G04 APERTURE END LIST*
D10*
%TO.C,SW3*%
X112000000Y-95460000D02*
G75*
G03*
X109538732Y-97372497I0J-2540000D01*
G01*
X108190000Y-91015000D02*
G75*
G03*
X105650000Y-93555000I1J-2540001D01*
G01*
X119000000Y-105000000D02*
X118000000Y-105000000D01*
X119000000Y-104000000D02*
X119000000Y-105000000D01*
X119000000Y-91000000D02*
X119000000Y-91396000D01*
X118000000Y-91000000D02*
X119000000Y-91000000D01*
X117080000Y-95460000D02*
X117080000Y-94444000D01*
X117080000Y-91396000D02*
X117080000Y-91015000D01*
X117080000Y-91015000D02*
X108190000Y-91015000D01*
X112000000Y-95460000D02*
X117080000Y-95460000D01*
X107809000Y-97365000D02*
X109460000Y-97365000D01*
X106000000Y-105000000D02*
X105000000Y-105000000D01*
X105650000Y-97365000D02*
X106031000Y-97365000D01*
X105650000Y-96984000D02*
X105650000Y-97365000D01*
X105650000Y-93555000D02*
X105650000Y-93936000D01*
X105000000Y-105000000D02*
X105000000Y-104000000D01*
X105000000Y-92000000D02*
X105000000Y-91000000D01*
X105000000Y-91000000D02*
X106000000Y-91000000D01*
%TO.C,SW1*%
X131000000Y-63460000D02*
G75*
G03*
X128538732Y-65372497I0J-2540000D01*
G01*
X127190000Y-59015000D02*
G75*
G03*
X124650000Y-61555000I1J-2540001D01*
G01*
X138000000Y-73000000D02*
X137000000Y-73000000D01*
X138000000Y-72000000D02*
X138000000Y-73000000D01*
X138000000Y-59000000D02*
X138000000Y-59396000D01*
X137000000Y-59000000D02*
X138000000Y-59000000D01*
X136080000Y-63460000D02*
X136080000Y-62444000D01*
X136080000Y-59396000D02*
X136080000Y-59015000D01*
X136080000Y-59015000D02*
X127190000Y-59015000D01*
X131000000Y-63460000D02*
X136080000Y-63460000D01*
X126809000Y-65365000D02*
X128460000Y-65365000D01*
X125000000Y-73000000D02*
X124000000Y-73000000D01*
X124650000Y-65365000D02*
X125031000Y-65365000D01*
X124650000Y-64984000D02*
X124650000Y-65365000D01*
X124650000Y-61555000D02*
X124650000Y-61936000D01*
X124000000Y-73000000D02*
X124000000Y-72000000D01*
X124000000Y-60000000D02*
X124000000Y-59000000D01*
X124000000Y-59000000D02*
X125000000Y-59000000D01*
%TO.C,SW10*%
X131000000Y-101460000D02*
G75*
G03*
X128538732Y-103372497I0J-2540000D01*
G01*
X127190000Y-97015000D02*
G75*
G03*
X124650000Y-99555000I1J-2540001D01*
G01*
X138000000Y-111000000D02*
X137000000Y-111000000D01*
X138000000Y-110000000D02*
X138000000Y-111000000D01*
X138000000Y-97000000D02*
X138000000Y-97396000D01*
X137000000Y-97000000D02*
X138000000Y-97000000D01*
X136080000Y-101460000D02*
X136080000Y-100444000D01*
X136080000Y-97396000D02*
X136080000Y-97015000D01*
X136080000Y-97015000D02*
X127190000Y-97015000D01*
X131000000Y-101460000D02*
X136080000Y-101460000D01*
X126809000Y-103365000D02*
X128460000Y-103365000D01*
X125000000Y-111000000D02*
X124000000Y-111000000D01*
X124650000Y-103365000D02*
X125031000Y-103365000D01*
X124650000Y-102984000D02*
X124650000Y-103365000D01*
X124650000Y-99555000D02*
X124650000Y-99936000D01*
X124000000Y-111000000D02*
X124000000Y-110000000D01*
X124000000Y-98000000D02*
X124000000Y-97000000D01*
X124000000Y-97000000D02*
X125000000Y-97000000D01*
%TO.C,SW7*%
X188000000Y-91960000D02*
G75*
G03*
X185538732Y-93872497I0J-2540000D01*
G01*
X184190000Y-87515000D02*
G75*
G03*
X181650000Y-90055000I1J-2540001D01*
G01*
X195000000Y-101500000D02*
X194000000Y-101500000D01*
X195000000Y-100500000D02*
X195000000Y-101500000D01*
X195000000Y-87500000D02*
X195000000Y-87896000D01*
X194000000Y-87500000D02*
X195000000Y-87500000D01*
X193080000Y-91960000D02*
X193080000Y-90944000D01*
X193080000Y-87896000D02*
X193080000Y-87515000D01*
X193080000Y-87515000D02*
X184190000Y-87515000D01*
X188000000Y-91960000D02*
X193080000Y-91960000D01*
X183809000Y-93865000D02*
X185460000Y-93865000D01*
X182000000Y-101500000D02*
X181000000Y-101500000D01*
X181650000Y-93865000D02*
X182031000Y-93865000D01*
X181650000Y-93484000D02*
X181650000Y-93865000D01*
X181650000Y-90055000D02*
X181650000Y-90436000D01*
X181000000Y-101500000D02*
X181000000Y-100500000D01*
X181000000Y-88500000D02*
X181000000Y-87500000D01*
X181000000Y-87500000D02*
X182000000Y-87500000D01*
%TO.C,SW13*%
X188000000Y-110960000D02*
G75*
G03*
X185538732Y-112872497I0J-2540000D01*
G01*
X184190000Y-106515000D02*
G75*
G03*
X181650000Y-109055000I1J-2540001D01*
G01*
X195000000Y-120500000D02*
X194000000Y-120500000D01*
X195000000Y-119500000D02*
X195000000Y-120500000D01*
X195000000Y-106500000D02*
X195000000Y-106896000D01*
X194000000Y-106500000D02*
X195000000Y-106500000D01*
X193080000Y-110960000D02*
X193080000Y-109944000D01*
X193080000Y-106896000D02*
X193080000Y-106515000D01*
X193080000Y-106515000D02*
X184190000Y-106515000D01*
X188000000Y-110960000D02*
X193080000Y-110960000D01*
X183809000Y-112865000D02*
X185460000Y-112865000D01*
X182000000Y-120500000D02*
X181000000Y-120500000D01*
X181650000Y-112865000D02*
X182031000Y-112865000D01*
X181650000Y-112484000D02*
X181650000Y-112865000D01*
X181650000Y-109055000D02*
X181650000Y-109436000D01*
X181000000Y-120500000D02*
X181000000Y-119500000D01*
X181000000Y-107500000D02*
X181000000Y-106500000D01*
X181000000Y-106500000D02*
X182000000Y-106500000D01*
%TO.C,SW6*%
X169000000Y-82460000D02*
G75*
G03*
X166538732Y-84372497I0J-2540000D01*
G01*
X165190000Y-78015000D02*
G75*
G03*
X162650000Y-80555000I1J-2540001D01*
G01*
X176000000Y-92000000D02*
X175000000Y-92000000D01*
X176000000Y-91000000D02*
X176000000Y-92000000D01*
X176000000Y-78000000D02*
X176000000Y-78396000D01*
X175000000Y-78000000D02*
X176000000Y-78000000D01*
X174080000Y-82460000D02*
X174080000Y-81444000D01*
X174080000Y-78396000D02*
X174080000Y-78015000D01*
X174080000Y-78015000D02*
X165190000Y-78015000D01*
X169000000Y-82460000D02*
X174080000Y-82460000D01*
X164809000Y-84365000D02*
X166460000Y-84365000D01*
X163000000Y-92000000D02*
X162000000Y-92000000D01*
X162650000Y-84365000D02*
X163031000Y-84365000D01*
X162650000Y-83984000D02*
X162650000Y-84365000D01*
X162650000Y-80555000D02*
X162650000Y-80936000D01*
X162000000Y-92000000D02*
X162000000Y-91000000D01*
X162000000Y-79000000D02*
X162000000Y-78000000D01*
X162000000Y-78000000D02*
X163000000Y-78000000D01*
%TO.C,SW5*%
X150000000Y-77460000D02*
G75*
G03*
X147538732Y-79372497I0J-2540000D01*
G01*
X146190000Y-73015000D02*
G75*
G03*
X143650000Y-75555000I1J-2540001D01*
G01*
X157000000Y-87000000D02*
X156000000Y-87000000D01*
X157000000Y-86000000D02*
X157000000Y-87000000D01*
X157000000Y-73000000D02*
X157000000Y-73396000D01*
X156000000Y-73000000D02*
X157000000Y-73000000D01*
X155080000Y-77460000D02*
X155080000Y-76444000D01*
X155080000Y-73396000D02*
X155080000Y-73015000D01*
X155080000Y-73015000D02*
X146190000Y-73015000D01*
X150000000Y-77460000D02*
X155080000Y-77460000D01*
X145809000Y-79365000D02*
X147460000Y-79365000D01*
X144000000Y-87000000D02*
X143000000Y-87000000D01*
X143650000Y-79365000D02*
X144031000Y-79365000D01*
X143650000Y-78984000D02*
X143650000Y-79365000D01*
X143650000Y-75555000D02*
X143650000Y-75936000D01*
X143000000Y-87000000D02*
X143000000Y-86000000D01*
X143000000Y-74000000D02*
X143000000Y-73000000D01*
X143000000Y-73000000D02*
X144000000Y-73000000D01*
D11*
%TO.C,U1*%
X163660000Y-47860000D02*
X163660000Y-65640000D01*
X163660000Y-65640000D02*
X196680000Y-65640000D01*
X196680000Y-47860000D02*
X163660000Y-47860000D01*
X196680000Y-65640000D02*
X196680000Y-47860000D01*
D10*
%TO.C,SW17*%
X169000000Y-120460000D02*
G75*
G03*
X166538732Y-122372497I0J-2540000D01*
G01*
X165190000Y-116015000D02*
G75*
G03*
X162650000Y-118555000I1J-2540001D01*
G01*
X176000000Y-130000000D02*
X175000000Y-130000000D01*
X176000000Y-129000000D02*
X176000000Y-130000000D01*
X176000000Y-116000000D02*
X176000000Y-116396000D01*
X175000000Y-116000000D02*
X176000000Y-116000000D01*
X174080000Y-120460000D02*
X174080000Y-119444000D01*
X174080000Y-116396000D02*
X174080000Y-116015000D01*
X174080000Y-116015000D02*
X165190000Y-116015000D01*
X169000000Y-120460000D02*
X174080000Y-120460000D01*
X164809000Y-122365000D02*
X166460000Y-122365000D01*
X163000000Y-130000000D02*
X162000000Y-130000000D01*
X162650000Y-122365000D02*
X163031000Y-122365000D01*
X162650000Y-121984000D02*
X162650000Y-122365000D01*
X162650000Y-118555000D02*
X162650000Y-118936000D01*
X162000000Y-130000000D02*
X162000000Y-129000000D01*
X162000000Y-117000000D02*
X162000000Y-116000000D01*
X162000000Y-116000000D02*
X163000000Y-116000000D01*
%TO.C,SW12*%
X169000000Y-101460000D02*
G75*
G03*
X166538732Y-103372497I0J-2540000D01*
G01*
X165190000Y-97015000D02*
G75*
G03*
X162650000Y-99555000I1J-2540001D01*
G01*
X176000000Y-111000000D02*
X175000000Y-111000000D01*
X176000000Y-110000000D02*
X176000000Y-111000000D01*
X176000000Y-97000000D02*
X176000000Y-97396000D01*
X175000000Y-97000000D02*
X176000000Y-97000000D01*
X174080000Y-101460000D02*
X174080000Y-100444000D01*
X174080000Y-97396000D02*
X174080000Y-97015000D01*
X174080000Y-97015000D02*
X165190000Y-97015000D01*
X169000000Y-101460000D02*
X174080000Y-101460000D01*
X164809000Y-103365000D02*
X166460000Y-103365000D01*
X163000000Y-111000000D02*
X162000000Y-111000000D01*
X162650000Y-103365000D02*
X163031000Y-103365000D01*
X162650000Y-102984000D02*
X162650000Y-103365000D01*
X162650000Y-99555000D02*
X162650000Y-99936000D01*
X162000000Y-111000000D02*
X162000000Y-110000000D01*
X162000000Y-98000000D02*
X162000000Y-97000000D01*
X162000000Y-97000000D02*
X163000000Y-97000000D01*
%TO.C,SW9*%
X112000000Y-114460000D02*
G75*
G03*
X109538732Y-116372497I0J-2540000D01*
G01*
X108190000Y-110015000D02*
G75*
G03*
X105650000Y-112555000I1J-2540001D01*
G01*
X119000000Y-124000000D02*
X118000000Y-124000000D01*
X119000000Y-123000000D02*
X119000000Y-124000000D01*
X119000000Y-110000000D02*
X119000000Y-110396000D01*
X118000000Y-110000000D02*
X119000000Y-110000000D01*
X117080000Y-114460000D02*
X117080000Y-113444000D01*
X117080000Y-110396000D02*
X117080000Y-110015000D01*
X117080000Y-110015000D02*
X108190000Y-110015000D01*
X112000000Y-114460000D02*
X117080000Y-114460000D01*
X107809000Y-116365000D02*
X109460000Y-116365000D01*
X106000000Y-124000000D02*
X105000000Y-124000000D01*
X105650000Y-116365000D02*
X106031000Y-116365000D01*
X105650000Y-115984000D02*
X105650000Y-116365000D01*
X105650000Y-112555000D02*
X105650000Y-112936000D01*
X105000000Y-124000000D02*
X105000000Y-123000000D01*
X105000000Y-111000000D02*
X105000000Y-110000000D01*
X105000000Y-110000000D02*
X106000000Y-110000000D01*
%TO.C,SW15*%
X131000000Y-120460000D02*
G75*
G03*
X128538732Y-122372497I0J-2540000D01*
G01*
X127190000Y-116015000D02*
G75*
G03*
X124650000Y-118555000I1J-2540001D01*
G01*
X138000000Y-130000000D02*
X137000000Y-130000000D01*
X138000000Y-129000000D02*
X138000000Y-130000000D01*
X138000000Y-116000000D02*
X138000000Y-116396000D01*
X137000000Y-116000000D02*
X138000000Y-116000000D01*
X136080000Y-120460000D02*
X136080000Y-119444000D01*
X136080000Y-116396000D02*
X136080000Y-116015000D01*
X136080000Y-116015000D02*
X127190000Y-116015000D01*
X131000000Y-120460000D02*
X136080000Y-120460000D01*
X126809000Y-122365000D02*
X128460000Y-122365000D01*
X125000000Y-130000000D02*
X124000000Y-130000000D01*
X124650000Y-122365000D02*
X125031000Y-122365000D01*
X124650000Y-121984000D02*
X124650000Y-122365000D01*
X124650000Y-118555000D02*
X124650000Y-118936000D01*
X124000000Y-130000000D02*
X124000000Y-129000000D01*
X124000000Y-117000000D02*
X124000000Y-116000000D01*
X124000000Y-116000000D02*
X125000000Y-116000000D01*
%TO.C,SW14*%
X112000000Y-133460000D02*
G75*
G03*
X109538732Y-135372497I0J-2540000D01*
G01*
X108190000Y-129015000D02*
G75*
G03*
X105650000Y-131555000I1J-2540001D01*
G01*
X119000000Y-143000000D02*
X118000000Y-143000000D01*
X119000000Y-142000000D02*
X119000000Y-143000000D01*
X119000000Y-129000000D02*
X119000000Y-129396000D01*
X118000000Y-129000000D02*
X119000000Y-129000000D01*
X117080000Y-133460000D02*
X117080000Y-132444000D01*
X117080000Y-129396000D02*
X117080000Y-129015000D01*
X117080000Y-129015000D02*
X108190000Y-129015000D01*
X112000000Y-133460000D02*
X117080000Y-133460000D01*
X107809000Y-135365000D02*
X109460000Y-135365000D01*
X106000000Y-143000000D02*
X105000000Y-143000000D01*
X105650000Y-135365000D02*
X106031000Y-135365000D01*
X105650000Y-134984000D02*
X105650000Y-135365000D01*
X105650000Y-131555000D02*
X105650000Y-131936000D01*
X105000000Y-143000000D02*
X105000000Y-142000000D01*
X105000000Y-130000000D02*
X105000000Y-129000000D01*
X105000000Y-129000000D02*
X106000000Y-129000000D01*
%TO.C,SW19*%
X190400000Y-134960000D02*
G75*
G03*
X187938732Y-136872497I0J-2540000D01*
G01*
X186590000Y-130515000D02*
G75*
G03*
X184050000Y-133055000I1J-2540001D01*
G01*
X197400000Y-144500000D02*
X196400000Y-144500000D01*
X197400000Y-143500000D02*
X197400000Y-144500000D01*
X197400000Y-130500000D02*
X197400000Y-130896000D01*
X196400000Y-130500000D02*
X197400000Y-130500000D01*
X195480000Y-134960000D02*
X195480000Y-133944000D01*
X195480000Y-130896000D02*
X195480000Y-130515000D01*
X195480000Y-130515000D02*
X186590000Y-130515000D01*
X190400000Y-134960000D02*
X195480000Y-134960000D01*
X186209000Y-136865000D02*
X187860000Y-136865000D01*
X184400000Y-144500000D02*
X183400000Y-144500000D01*
X184050000Y-136865000D02*
X184431000Y-136865000D01*
X184050000Y-136484000D02*
X184050000Y-136865000D01*
X184050000Y-133055000D02*
X184050000Y-133436000D01*
X183400000Y-144500000D02*
X183400000Y-143500000D01*
X183400000Y-131500000D02*
X183400000Y-130500000D01*
X183400000Y-130500000D02*
X184400000Y-130500000D01*
%TO.C,SW11*%
X150000000Y-96460000D02*
G75*
G03*
X147538732Y-98372497I0J-2540000D01*
G01*
X146190000Y-92015000D02*
G75*
G03*
X143650000Y-94555000I1J-2540001D01*
G01*
X157000000Y-106000000D02*
X156000000Y-106000000D01*
X157000000Y-105000000D02*
X157000000Y-106000000D01*
X157000000Y-92000000D02*
X157000000Y-92396000D01*
X156000000Y-92000000D02*
X157000000Y-92000000D01*
X155080000Y-96460000D02*
X155080000Y-95444000D01*
X155080000Y-92396000D02*
X155080000Y-92015000D01*
X155080000Y-92015000D02*
X146190000Y-92015000D01*
X150000000Y-96460000D02*
X155080000Y-96460000D01*
X145809000Y-98365000D02*
X147460000Y-98365000D01*
X144000000Y-106000000D02*
X143000000Y-106000000D01*
X143650000Y-98365000D02*
X144031000Y-98365000D01*
X143650000Y-97984000D02*
X143650000Y-98365000D01*
X143650000Y-94555000D02*
X143650000Y-94936000D01*
X143000000Y-106000000D02*
X143000000Y-105000000D01*
X143000000Y-93000000D02*
X143000000Y-92000000D01*
X143000000Y-92000000D02*
X144000000Y-92000000D01*
%TO.C,SW4*%
X131000000Y-82460000D02*
G75*
G03*
X128538732Y-84372497I0J-2540000D01*
G01*
X127190000Y-78015000D02*
G75*
G03*
X124650000Y-80555000I1J-2540001D01*
G01*
X138000000Y-92000000D02*
X137000000Y-92000000D01*
X138000000Y-91000000D02*
X138000000Y-92000000D01*
X138000000Y-78000000D02*
X138000000Y-78396000D01*
X137000000Y-78000000D02*
X138000000Y-78000000D01*
X136080000Y-82460000D02*
X136080000Y-81444000D01*
X136080000Y-78396000D02*
X136080000Y-78015000D01*
X136080000Y-78015000D02*
X127190000Y-78015000D01*
X131000000Y-82460000D02*
X136080000Y-82460000D01*
X126809000Y-84365000D02*
X128460000Y-84365000D01*
X125000000Y-92000000D02*
X124000000Y-92000000D01*
X124650000Y-84365000D02*
X125031000Y-84365000D01*
X124650000Y-83984000D02*
X124650000Y-84365000D01*
X124650000Y-80555000D02*
X124650000Y-80936000D01*
X124000000Y-92000000D02*
X124000000Y-91000000D01*
X124000000Y-79000000D02*
X124000000Y-78000000D01*
X124000000Y-78000000D02*
X125000000Y-78000000D01*
%TO.C,SW2*%
X150000000Y-58460000D02*
G75*
G03*
X147538732Y-60372497I0J-2540000D01*
G01*
X146190000Y-54015000D02*
G75*
G03*
X143650000Y-56555000I1J-2540001D01*
G01*
X157000000Y-68000000D02*
X156000000Y-68000000D01*
X157000000Y-67000000D02*
X157000000Y-68000000D01*
X157000000Y-54000000D02*
X157000000Y-54396000D01*
X156000000Y-54000000D02*
X157000000Y-54000000D01*
X155080000Y-58460000D02*
X155080000Y-57444000D01*
X155080000Y-54396000D02*
X155080000Y-54015000D01*
X155080000Y-54015000D02*
X146190000Y-54015000D01*
X150000000Y-58460000D02*
X155080000Y-58460000D01*
X145809000Y-60365000D02*
X147460000Y-60365000D01*
X144000000Y-68000000D02*
X143000000Y-68000000D01*
X143650000Y-60365000D02*
X144031000Y-60365000D01*
X143650000Y-59984000D02*
X143650000Y-60365000D01*
X143650000Y-56555000D02*
X143650000Y-56936000D01*
X143000000Y-68000000D02*
X143000000Y-67000000D01*
X143000000Y-55000000D02*
X143000000Y-54000000D01*
X143000000Y-54000000D02*
X144000000Y-54000000D01*
%TO.C,SW20*%
X218670152Y-142500000D02*
G75*
G03*
X215582383Y-142925637I-1270000J-2199705D01*
G01*
X217593095Y-136745518D02*
G75*
G03*
X214123392Y-137675222I-1269999J-2199705D01*
G01*
X219962330Y-154261883D02*
X219096304Y-153761883D01*
X220462330Y-153395857D02*
X219962330Y-154261883D01*
X226962330Y-142137527D02*
X226764330Y-142480473D01*
X226096304Y-141637527D02*
X226962330Y-142137527D01*
X223069561Y-145040000D02*
X223577561Y-144160119D01*
X225101561Y-141520473D02*
X225292061Y-141190518D01*
X225292061Y-141190518D02*
X217593095Y-136745518D01*
X218670152Y-142500000D02*
X223069561Y-145040000D01*
X214088140Y-142054279D02*
X215517947Y-142879779D01*
X208704000Y-147761883D02*
X207837974Y-147261883D01*
X212218391Y-140974779D02*
X212548346Y-141165279D01*
X212408891Y-140644823D02*
X212218391Y-140974779D01*
X214123391Y-137675222D02*
X213932891Y-138005178D01*
X207837974Y-147261883D02*
X208337974Y-146395857D01*
X214337974Y-136003553D02*
X214837974Y-135137527D01*
X214837974Y-135137527D02*
X215704000Y-135637527D01*
%TO.C,SW8*%
X90460000Y-117000000D02*
G75*
G03*
X92372497Y-119461268I2540000J0D01*
G01*
X86015000Y-120810000D02*
G75*
G03*
X88555000Y-123350000I2540001J1D01*
G01*
X100000000Y-110000000D02*
X100000000Y-111000000D01*
X99000000Y-110000000D02*
X100000000Y-110000000D01*
X86000000Y-110000000D02*
X86396000Y-110000000D01*
X86000000Y-111000000D02*
X86000000Y-110000000D01*
X90460000Y-111920000D02*
X89444000Y-111920000D01*
X86396000Y-111920000D02*
X86015000Y-111920000D01*
X86015000Y-111920000D02*
X86015000Y-120810000D01*
X90460000Y-117000000D02*
X90460000Y-111920000D01*
X92365000Y-121191000D02*
X92365000Y-119540000D01*
X100000000Y-123000000D02*
X100000000Y-124000000D01*
X92365000Y-123350000D02*
X92365000Y-122969000D01*
X91984000Y-123350000D02*
X92365000Y-123350000D01*
X88555000Y-123350000D02*
X88936000Y-123350000D01*
X100000000Y-124000000D02*
X99000000Y-124000000D01*
X87000000Y-124000000D02*
X86000000Y-124000000D01*
X86000000Y-124000000D02*
X86000000Y-123000000D01*
%TO.C,SW16*%
X150000000Y-115460000D02*
G75*
G03*
X147538732Y-117372497I0J-2540000D01*
G01*
X146190000Y-111015000D02*
G75*
G03*
X143650000Y-113555000I1J-2540001D01*
G01*
X157000000Y-125000000D02*
X156000000Y-125000000D01*
X157000000Y-124000000D02*
X157000000Y-125000000D01*
X157000000Y-111000000D02*
X157000000Y-111396000D01*
X156000000Y-111000000D02*
X157000000Y-111000000D01*
X155080000Y-115460000D02*
X155080000Y-114444000D01*
X155080000Y-111396000D02*
X155080000Y-111015000D01*
X155080000Y-111015000D02*
X146190000Y-111015000D01*
X150000000Y-115460000D02*
X155080000Y-115460000D01*
X145809000Y-117365000D02*
X147460000Y-117365000D01*
X144000000Y-125000000D02*
X143000000Y-125000000D01*
X143650000Y-117365000D02*
X144031000Y-117365000D01*
X143650000Y-116984000D02*
X143650000Y-117365000D01*
X143650000Y-113555000D02*
X143650000Y-113936000D01*
X143000000Y-125000000D02*
X143000000Y-124000000D01*
X143000000Y-112000000D02*
X143000000Y-111000000D01*
X143000000Y-111000000D02*
X144000000Y-111000000D01*
%TO.C,SW18*%
X166600000Y-139460000D02*
G75*
G03*
X164138732Y-141372497I0J-2540000D01*
G01*
X162790000Y-135015000D02*
G75*
G03*
X160250000Y-137555000I1J-2540001D01*
G01*
X173600000Y-149000000D02*
X172600000Y-149000000D01*
X173600000Y-148000000D02*
X173600000Y-149000000D01*
X173600000Y-135000000D02*
X173600000Y-135396000D01*
X172600000Y-135000000D02*
X173600000Y-135000000D01*
X171680000Y-139460000D02*
X171680000Y-138444000D01*
X171680000Y-135396000D02*
X171680000Y-135015000D01*
X171680000Y-135015000D02*
X162790000Y-135015000D01*
X166600000Y-139460000D02*
X171680000Y-139460000D01*
X162409000Y-141365000D02*
X164060000Y-141365000D01*
X160600000Y-149000000D02*
X159600000Y-149000000D01*
X160250000Y-141365000D02*
X160631000Y-141365000D01*
X160250000Y-140984000D02*
X160250000Y-141365000D01*
X160250000Y-137555000D02*
X160250000Y-137936000D01*
X159600000Y-149000000D02*
X159600000Y-148000000D01*
X159600000Y-136000000D02*
X159600000Y-135000000D01*
X159600000Y-135000000D02*
X160600000Y-135000000D01*
%TD*%
M02*
