%TF.GenerationSoftware,KiCad,Pcbnew,9.0.7*%
%TF.CreationDate,2026-01-19T16:19:19-08:00*%
%TF.ProjectId,talon_slim,74616c6f-6e5f-4736-9c69-6d2e6b696361,rev?*%
%TF.SameCoordinates,Original*%
%TF.FileFunction,Soldermask,Bot*%
%TF.FilePolarity,Negative*%
%FSLAX46Y46*%
G04 Gerber Fmt 4.6, Leading zero omitted, Abs format (unit mm)*
G04 Created by KiCad (PCBNEW 9.0.7) date 2026-01-19 16:19:19*
%MOMM*%
%LPD*%
G01*
G04 APERTURE LIST*
G04 Aperture macros list*
%AMRoundRect*
0 Rectangle with rounded corners*
0 $1 Rounding radius*
0 $2 $3 $4 $5 $6 $7 $8 $9 X,Y pos of 4 corners*
0 Add a 4 corners polygon primitive as box body*
4,1,4,$2,$3,$4,$5,$6,$7,$8,$9,$2,$3,0*
0 Add four circle primitives for the rounded corners*
1,1,$1+$1,$2,$3*
1,1,$1+$1,$4,$5*
1,1,$1+$1,$6,$7*
1,1,$1+$1,$8,$9*
0 Add four rect primitives between the rounded corners*
20,1,$1+$1,$2,$3,$4,$5,0*
20,1,$1+$1,$4,$5,$6,$7,0*
20,1,$1+$1,$6,$7,$8,$9,0*
20,1,$1+$1,$8,$9,$2,$3,0*%
%AMHorizOval*
0 Thick line with rounded ends*
0 $1 width*
0 $2 $3 position (X,Y) of the first rounded end (center of the circle)*
0 $4 $5 position (X,Y) of the second rounded end (center of the circle)*
0 Add line between two ends*
20,1,$1,$2,$3,$4,$5,0*
0 Add two circle primitives to create the rounded ends*
1,1,$1,$2,$3*
1,1,$1,$4,$5*%
%AMFreePoly0*
4,1,23,0.000000,0.745722,0.065263,0.745722,0.191342,0.711940,0.304381,0.646677,0.396677,0.554381,0.461940,0.441342,0.495722,0.315263,0.495722,0.250000,0.500000,0.250000,0.500000,-0.250000,0.495722,-0.250000,0.495722,-0.315263,0.461940,-0.441342,0.396677,-0.554381,0.304381,-0.646677,0.191342,-0.711940,0.065263,-0.745722,0.000000,-0.745722,0.000000,-0.750000,-0.500000,-0.750000,
-0.500000,0.750000,0.000000,0.750000,0.000000,0.745722,0.000000,0.745722,$1*%
%AMFreePoly1*
4,1,23,0.500000,-0.750000,0.000000,-0.750000,0.000000,-0.745722,-0.065263,-0.745722,-0.191342,-0.711940,-0.304381,-0.646677,-0.396677,-0.554381,-0.461940,-0.441342,-0.495722,-0.315263,-0.495722,-0.250000,-0.500000,-0.250000,-0.500000,0.250000,-0.495722,0.250000,-0.495722,0.315263,-0.461940,0.441342,-0.396677,0.554381,-0.304381,0.646677,-0.191342,0.711940,-0.065263,0.745722,0.000000,0.745722,
0.000000,0.750000,0.500000,0.750000,0.500000,-0.750000,0.500000,-0.750000,$1*%
G04 Aperture macros list end*
%ADD10RoundRect,0.102000X-0.500000X-0.400000X0.500000X-0.400000X0.500000X0.400000X-0.500000X0.400000X0*%
%ADD11RoundRect,0.102000X-0.350000X-0.750000X0.350000X-0.750000X0.350000X0.750000X-0.350000X0.750000X0*%
%ADD12FreePoly0,180.000000*%
%ADD13FreePoly1,180.000000*%
%ADD14C,1.752600*%
%ADD15R,1.550000X1.000000*%
%ADD16C,1.701800*%
%ADD17C,0.990600*%
%ADD18C,3.429000*%
%ADD19C,2.032000*%
%ADD20C,4.400000*%
%ADD21RoundRect,0.250000X0.009391X-0.716266X0.615609X-0.366266X-0.009391X0.716266X-0.615609X0.366266X0*%
%ADD22HorizOval,1.200000X-0.137500X0.238157X0.137500X-0.238157X0*%
%ADD23FreePoly1,90.000000*%
%ADD24FreePoly0,90.000000*%
%ADD25FreePoly1,0.000000*%
%ADD26FreePoly0,0.000000*%
G04 APERTURE END LIST*
%TO.C,JP2*%
G36*
X160600000Y-53500000D02*
G01*
X160300000Y-53500000D01*
X160300000Y-55000000D01*
X160600000Y-55000000D01*
X160600000Y-53500000D01*
G37*
G36*
X159850000Y-53500000D02*
G01*
X159550000Y-53500000D01*
X159550000Y-55000000D01*
X159850000Y-55000000D01*
X159850000Y-53500000D01*
G37*
%TO.C,JP8*%
G36*
X160060000Y-73980000D02*
G01*
X158560000Y-73980000D01*
X158560000Y-73680000D01*
X160060000Y-73680000D01*
X160060000Y-73980000D01*
G37*
G36*
X160060000Y-74730000D02*
G01*
X158560000Y-74730000D01*
X158560000Y-74430000D01*
X160060000Y-74430000D01*
X160060000Y-74730000D01*
G37*
%TO.C,JP6*%
G36*
X154880000Y-53510000D02*
G01*
X154580000Y-53510000D01*
X154580000Y-55010000D01*
X154880000Y-55010000D01*
X154880000Y-53510000D01*
G37*
G36*
X155470000Y-53510000D02*
G01*
X155170000Y-53510000D01*
X155170000Y-55010000D01*
X155470000Y-55010000D01*
X155470000Y-53510000D01*
G37*
%TO.C,JP7*%
G36*
X150520000Y-55010000D02*
G01*
X150820000Y-55010000D01*
X150820000Y-53510000D01*
X150520000Y-53510000D01*
X150520000Y-55010000D01*
G37*
G36*
X151110000Y-55010000D02*
G01*
X151410000Y-55010000D01*
X151410000Y-53510000D01*
X151110000Y-53510000D01*
X151110000Y-55010000D01*
G37*
%TO.C,JP12*%
G36*
X153060000Y-74730000D02*
G01*
X153360000Y-74730000D01*
X153360000Y-73230000D01*
X153060000Y-73230000D01*
X153060000Y-74730000D01*
G37*
G36*
X153650000Y-74730000D02*
G01*
X153950000Y-74730000D01*
X153950000Y-73230000D01*
X153650000Y-73230000D01*
X153650000Y-74730000D01*
G37*
%TO.C,JP11*%
G36*
X157540000Y-74080000D02*
G01*
X156040000Y-74080000D01*
X156040000Y-73780000D01*
X157540000Y-73780000D01*
X157540000Y-74080000D01*
G37*
G36*
X157540000Y-74670000D02*
G01*
X156040000Y-74670000D01*
X156040000Y-74370000D01*
X157540000Y-74370000D01*
X157540000Y-74670000D01*
G37*
%TO.C,JP15*%
G36*
X156310000Y-79250000D02*
G01*
X156610000Y-79250000D01*
X156610000Y-77750000D01*
X156310000Y-77750000D01*
X156310000Y-79250000D01*
G37*
G36*
X156900000Y-79250000D02*
G01*
X157200000Y-79250000D01*
X157200000Y-77750000D01*
X156900000Y-77750000D01*
X156900000Y-79250000D01*
G37*
%TO.C,JP3*%
G36*
X156310000Y-82000000D02*
G01*
X156610000Y-82000000D01*
X156610000Y-80500000D01*
X156310000Y-80500000D01*
X156310000Y-82000000D01*
G37*
G36*
X156900000Y-82000000D02*
G01*
X157200000Y-82000000D01*
X157200000Y-80500000D01*
X156900000Y-80500000D01*
X156900000Y-82000000D01*
G37*
%TD*%
D10*
%TO.C,SLIDE_SW2*%
X177640000Y-83680000D03*
X170340000Y-83680000D03*
X177640000Y-85880000D03*
X170340000Y-85880000D03*
D11*
X176240000Y-86530000D03*
X174740000Y-86530000D03*
X171740000Y-86530000D03*
%TD*%
D12*
%TO.C,JP2*%
X159190000Y-54250000D03*
D13*
X160990000Y-54250000D03*
%TD*%
D14*
%TO.C,U1*%
X136480000Y-64090000D03*
X136480000Y-61550000D03*
X136480000Y-66630000D03*
X136480000Y-59010000D03*
X136480000Y-69170000D03*
X159340000Y-71710000D03*
X156800000Y-71710000D03*
X154260000Y-71710000D03*
X151720000Y-71710000D03*
X149180000Y-71710000D03*
X146640000Y-71710000D03*
X144100000Y-71710000D03*
X141560000Y-71710000D03*
X139020000Y-71710000D03*
X136480000Y-71710000D03*
X133940000Y-71710000D03*
X131400000Y-71710000D03*
X131400000Y-56470000D03*
X133940000Y-56470000D03*
X136480000Y-56470000D03*
X139020000Y-56470000D03*
X141560000Y-56470000D03*
X144100000Y-56470000D03*
X146640000Y-56470000D03*
X149180000Y-56470000D03*
X151720000Y-56470000D03*
X154260000Y-56470000D03*
X156800000Y-56470000D03*
X159340000Y-56470000D03*
%TD*%
D15*
%TO.C,RESET_SW2*%
X79375000Y-90350000D03*
X84625000Y-90350000D03*
X79375000Y-88650000D03*
X84625000Y-88650000D03*
%TD*%
D16*
%TO.C,SW3*%
X76500000Y-96000000D03*
D17*
X76780000Y-91800000D03*
D18*
X82000000Y-96000000D03*
D17*
X87220000Y-91800000D03*
D16*
X87500000Y-96000000D03*
D19*
X82000000Y-101900000D03*
X77000000Y-99800000D03*
X87000000Y-99800000D03*
%TD*%
D16*
%TO.C,SW1*%
X94500000Y-66000000D03*
D17*
X94780000Y-61800000D03*
D18*
X100000000Y-66000000D03*
D17*
X105220000Y-61800000D03*
D16*
X105500000Y-66000000D03*
D19*
X100000000Y-71900000D03*
X95000000Y-69800000D03*
X105000000Y-69800000D03*
%TD*%
D16*
%TO.C,SW10*%
X94500000Y-100000000D03*
D17*
X94780000Y-95800000D03*
D18*
X100000000Y-100000000D03*
D17*
X105220000Y-95800000D03*
D16*
X105500000Y-100000000D03*
D19*
X100000000Y-105900000D03*
X95000000Y-103800000D03*
X105000000Y-103800000D03*
%TD*%
D20*
%TO.C,REF\u002A\u002A*%
X107950000Y-91450000D03*
X127000000Y-72400000D03*
X127000000Y-110500000D03*
%TD*%
D16*
%TO.C,SW7*%
X148500000Y-91500000D03*
D17*
X148780000Y-87300000D03*
D18*
X154000000Y-91500000D03*
D17*
X159220000Y-87300000D03*
D16*
X159500000Y-91500000D03*
D19*
X154000000Y-97400000D03*
X149000000Y-95300000D03*
X159000000Y-95300000D03*
%TD*%
D16*
%TO.C,SW13*%
X148500000Y-108500000D03*
D17*
X148780000Y-104300000D03*
D18*
X154000000Y-108500000D03*
D17*
X159220000Y-104300000D03*
D16*
X159500000Y-108500000D03*
D19*
X154000000Y-114400000D03*
X149000000Y-112300000D03*
X159000000Y-112300000D03*
%TD*%
D16*
%TO.C,SW6*%
X130500000Y-83000000D03*
D17*
X130780000Y-78800000D03*
D18*
X136000000Y-83000000D03*
D17*
X141220000Y-78800000D03*
D16*
X141500000Y-83000000D03*
D19*
X136000000Y-88900000D03*
X131000000Y-86800000D03*
X141000000Y-86800000D03*
%TD*%
D16*
%TO.C,SW5*%
X112500000Y-78000000D03*
D17*
X112780000Y-73800000D03*
D18*
X118000000Y-78000000D03*
D17*
X123220000Y-73800000D03*
D16*
X123500000Y-78000000D03*
D19*
X118000000Y-83900000D03*
X113000000Y-81800000D03*
X123000000Y-81800000D03*
%TD*%
D16*
%TO.C,SW17*%
X130500000Y-117000000D03*
D17*
X130780000Y-112800000D03*
D18*
X136000000Y-117000000D03*
D17*
X141220000Y-112800000D03*
D16*
X141500000Y-117000000D03*
D19*
X136000000Y-122900000D03*
X131000000Y-120800000D03*
X141000000Y-120800000D03*
%TD*%
D16*
%TO.C,SW12*%
X130500000Y-100000000D03*
D17*
X130780000Y-95800000D03*
D18*
X136000000Y-100000000D03*
D17*
X141220000Y-95800000D03*
D16*
X141500000Y-100000000D03*
D19*
X136000000Y-105900000D03*
X131000000Y-103800000D03*
X141000000Y-103800000D03*
%TD*%
D16*
%TO.C,SW9*%
X76500000Y-113000000D03*
D17*
X76780000Y-108800000D03*
D18*
X82000000Y-113000000D03*
D17*
X87220000Y-108800000D03*
D16*
X87500000Y-113000000D03*
D19*
X82000000Y-118900000D03*
X77000000Y-116800000D03*
X87000000Y-116800000D03*
%TD*%
D16*
%TO.C,SW15*%
X94500000Y-117000000D03*
D17*
X94780000Y-112800000D03*
D18*
X100000000Y-117000000D03*
D17*
X105220000Y-112800000D03*
D16*
X105500000Y-117000000D03*
D19*
X100000000Y-122900000D03*
X95000000Y-120800000D03*
X105000000Y-120800000D03*
%TD*%
D16*
%TO.C,SW14*%
X76500000Y-130000000D03*
D17*
X76780000Y-125800000D03*
D18*
X82000000Y-130000000D03*
D17*
X87220000Y-125800000D03*
D16*
X87500000Y-130000000D03*
D19*
X82000000Y-135900000D03*
X77000000Y-133800000D03*
X87000000Y-133800000D03*
%TD*%
D16*
%TO.C,SW19*%
X150687408Y-132200072D03*
D17*
X152044907Y-128215653D03*
D18*
X156000000Y-133623577D03*
D17*
X162129173Y-130917724D03*
D16*
X161312592Y-135047082D03*
D19*
X154472968Y-139322539D03*
X150186858Y-136000000D03*
X159846117Y-138588190D03*
%TD*%
D16*
%TO.C,SW11*%
X112500000Y-95000000D03*
D17*
X112780000Y-90800000D03*
D18*
X118000000Y-95000000D03*
D17*
X123220000Y-90800000D03*
D16*
X123500000Y-95000000D03*
D19*
X118000000Y-100900000D03*
X113000000Y-98800000D03*
X123000000Y-98800000D03*
%TD*%
D16*
%TO.C,SW4*%
X94500000Y-83000000D03*
D17*
X94780000Y-78800000D03*
D18*
X100000000Y-83000000D03*
D17*
X105220000Y-78800000D03*
D16*
X105500000Y-83000000D03*
D19*
X100000000Y-88900000D03*
X95000000Y-86800000D03*
X105000000Y-86800000D03*
%TD*%
D16*
%TO.C,SW2*%
X112500000Y-61000000D03*
D17*
X112780000Y-56800000D03*
D18*
X118000000Y-61000000D03*
D17*
X123220000Y-56800000D03*
D16*
X123500000Y-61000000D03*
D19*
X118000000Y-66900000D03*
X113000000Y-64800000D03*
X123000000Y-64800000D03*
%TD*%
D16*
%TO.C,SW20*%
X176541627Y-142212385D03*
D17*
X179313486Y-145380223D03*
D18*
X172652540Y-146101472D03*
D17*
X171931291Y-152762418D03*
D16*
X168763453Y-149990559D03*
D19*
X168480610Y-141929542D03*
X173501068Y-139878932D03*
X166430000Y-146950000D03*
%TD*%
D16*
%TO.C,SW8*%
X64500000Y-118500000D03*
D17*
X60300000Y-118220000D03*
D18*
X64500000Y-113000000D03*
D17*
X60300000Y-107780000D03*
D16*
X64500000Y-107500000D03*
D19*
X70400000Y-113000000D03*
X68300000Y-118000000D03*
X68300000Y-108000000D03*
%TD*%
D21*
%TO.C,J1*%
X149267950Y-79750000D03*
D22*
X151000000Y-78750001D03*
%TD*%
D16*
%TO.C,SW16*%
X112500000Y-112000000D03*
D17*
X112780000Y-107800000D03*
D18*
X118000000Y-112000000D03*
D17*
X123220000Y-107800000D03*
D16*
X123500000Y-112000000D03*
D19*
X118000000Y-117900000D03*
X113000000Y-115800000D03*
X123000000Y-115800000D03*
%TD*%
D16*
%TO.C,SW18*%
X126000000Y-134000000D03*
D17*
X126280000Y-129800000D03*
D18*
X131500000Y-134000000D03*
D17*
X136720000Y-129800000D03*
D16*
X137000000Y-134000000D03*
D19*
X131500000Y-139900000D03*
X126500000Y-137800000D03*
X136500000Y-137800000D03*
%TD*%
D23*
%TO.C,JP8*%
X159310000Y-75120000D03*
D24*
X159310000Y-73320000D03*
%TD*%
D13*
%TO.C,JP6*%
X155780000Y-54260000D03*
D12*
X154280000Y-54260000D03*
%TD*%
D25*
%TO.C,JP7*%
X150210000Y-54260000D03*
D26*
X151710000Y-54260000D03*
%TD*%
D25*
%TO.C,JP12*%
X152750000Y-73980000D03*
D26*
X154250000Y-73980000D03*
%TD*%
D23*
%TO.C,JP11*%
X156790000Y-74980000D03*
D24*
X156790000Y-73480000D03*
%TD*%
D25*
%TO.C,JP15*%
X156000000Y-78500000D03*
D26*
X157500000Y-78500000D03*
%TD*%
D25*
%TO.C,JP3*%
X156000000Y-81250000D03*
D26*
X157500000Y-81250000D03*
%TD*%
M02*
