%TF.GenerationSoftware,KiCad,Pcbnew,7.0.10*%
%TF.CreationDate,2024-05-01T10:45:41+02:00*%
%TF.ProjectId,talon,74616c6f-6e2e-46b6-9963-61645f706362,rev?*%
%TF.SameCoordinates,Original*%
%TF.FileFunction,Paste,Top*%
%TF.FilePolarity,Positive*%
%FSLAX46Y46*%
G04 Gerber Fmt 4.6, Leading zero omitted, Abs format (unit mm)*
G04 Created by KiCad (PCBNEW 7.0.10) date 2024-05-01 10:45:41*
%MOMM*%
%LPD*%
G01*
G04 APERTURE LIST*
G04 Aperture macros list*
%AMRotRect*
0 Rectangle, with rotation*
0 The origin of the aperture is its center*
0 $1 length*
0 $2 width*
0 $3 Rotation angle, in degrees counterclockwise*
0 Add horizontal line*
21,1,$1,$2,0,0,$3*%
G04 Aperture macros list end*
%ADD10R,2.550000X2.500000*%
%ADD11RotRect,2.550000X2.500000X330.000000*%
%ADD12R,2.500000X2.550000*%
G04 APERTURE END LIST*
D10*
%TO.C,SW3*%
X104440000Y-100540000D03*
X118290000Y-103080000D03*
%TD*%
%TO.C,SW1*%
X123440000Y-68540000D03*
X137290000Y-71080000D03*
%TD*%
%TO.C,SW10*%
X123440000Y-106540000D03*
X137290000Y-109080000D03*
%TD*%
%TO.C,SW7*%
X180440000Y-97040000D03*
X194290000Y-99580000D03*
%TD*%
%TO.C,SW13*%
X180440000Y-116040000D03*
X194290000Y-118580000D03*
%TD*%
%TO.C,SW6*%
X161440000Y-87540000D03*
X175290000Y-90080000D03*
%TD*%
%TO.C,SW5*%
X142440000Y-82540000D03*
X156290000Y-85080000D03*
%TD*%
%TO.C,SW17*%
X161440000Y-125540000D03*
X175290000Y-128080000D03*
%TD*%
%TO.C,SW12*%
X161440000Y-106540000D03*
X175290000Y-109080000D03*
%TD*%
%TO.C,SW9*%
X104440000Y-119540000D03*
X118290000Y-122080000D03*
%TD*%
%TO.C,SW15*%
X123440000Y-125540000D03*
X137290000Y-128080000D03*
%TD*%
%TO.C,SW14*%
X104440000Y-138540000D03*
X118290000Y-141080000D03*
%TD*%
%TO.C,SW19*%
X182840000Y-140040000D03*
X196690000Y-142580000D03*
%TD*%
%TO.C,SW11*%
X142440000Y-101540000D03*
X156290000Y-104080000D03*
%TD*%
%TO.C,SW4*%
X123440000Y-87540000D03*
X137290000Y-90080000D03*
%TD*%
%TO.C,SW2*%
X142440000Y-63540000D03*
X156290000Y-66080000D03*
%TD*%
D11*
%TO.C,SW20*%
X209583000Y-143119410D03*
X220307452Y-152244114D03*
%TD*%
D12*
%TO.C,SW8*%
X95540000Y-124560000D03*
X98080000Y-110710000D03*
%TD*%
D10*
%TO.C,SW16*%
X142440000Y-120540000D03*
X156290000Y-123080000D03*
%TD*%
%TO.C,SW18*%
X159040000Y-144540000D03*
X172890000Y-147080000D03*
%TD*%
M02*
