M48
; DRILL file {KiCad 9.0.7} date 2026-01-19T16:19:15-0800
; FORMAT={-:-/ absolute / metric / decimal}
; #@! TF.CreationDate,2026-01-19T16:19:15-08:00
; #@! TF.GenerationSoftware,Kicad,Pcbnew,9.0.7
; #@! TF.FileFunction,Plated,1,2,PTH
FMAT,2
METRIC
; #@! TA.AperFunction,Plated,PTH,ViaDrill
T1C0.400
; #@! TA.AperFunction,Plated,PTH,ComponentDrill
T2C0.750
; #@! TA.AperFunction,Plated,PTH,ComponentDrill
T3C1.092
; #@! TA.AperFunction,Plated,PTH,ComponentDrill
T4C1.270
; #@! TA.AperFunction,Plated,PTH,ComponentDrill
T5C2.200
%
G90
G05
T1
X82.02Y-89.9
X149.34Y-75.02
X153.01Y-63.01
X157.33Y-83.26
X161.17Y-75.3
X162.58Y-75.34
X174.18Y-84.99
T2
X149.268Y-79.75
X151.0Y-78.75
T3
X131.4Y-56.47
X131.4Y-71.71
X133.94Y-56.47
X133.94Y-71.71
X136.48Y-56.47
X136.48Y-59.01
X136.48Y-61.55
X136.48Y-64.09
X136.48Y-66.63
X136.48Y-69.17
X136.48Y-71.71
X139.02Y-56.47
X139.02Y-71.71
X141.56Y-56.47
X141.56Y-71.71
X144.1Y-56.47
X144.1Y-71.71
X146.64Y-56.47
X146.64Y-71.71
X149.18Y-56.47
X149.18Y-71.71
X151.72Y-56.47
X151.72Y-71.71
X154.26Y-56.47
X154.26Y-71.71
X156.8Y-56.47
X156.8Y-71.71
X159.34Y-56.47
X159.34Y-71.71
T4
X68.3Y-108.0
X68.3Y-118.0
X70.4Y-113.0
X77.0Y-99.8
X77.0Y-116.8
X77.0Y-133.8
X82.0Y-101.9
X82.0Y-118.9
X82.0Y-135.9
X87.0Y-99.8
X87.0Y-116.8
X87.0Y-133.8
X95.0Y-69.8
X95.0Y-86.8
X95.0Y-103.8
X95.0Y-120.8
X100.0Y-71.9
X100.0Y-88.9
X100.0Y-105.9
X100.0Y-122.9
X105.0Y-69.8
X105.0Y-86.8
X105.0Y-103.8
X105.0Y-120.8
X113.0Y-64.8
X113.0Y-81.8
X113.0Y-98.8
X113.0Y-115.8
X118.0Y-66.9
X118.0Y-83.9
X118.0Y-100.9
X118.0Y-117.9
X123.0Y-64.8
X123.0Y-81.8
X123.0Y-98.8
X123.0Y-115.8
X126.5Y-137.8
X131.0Y-86.8
X131.0Y-103.8
X131.0Y-120.8
X131.5Y-139.9
X136.0Y-88.9
X136.0Y-105.9
X136.0Y-122.9
X136.5Y-137.8
X141.0Y-86.8
X141.0Y-103.8
X141.0Y-120.8
X149.0Y-95.3
X149.0Y-112.3
X150.187Y-136.0
X154.0Y-97.4
X154.0Y-114.4
X154.473Y-139.323
X159.0Y-95.3
X159.0Y-112.3
X159.846Y-138.588
X166.43Y-146.95
X168.481Y-141.93
X173.501Y-139.879
T5
X107.95Y-91.45
X127.0Y-72.4
X127.0Y-110.5
M30
