M48
; DRILL file {KiCad 9.0.7} date 2026-01-19T16:19:15-0800
; FORMAT={-:-/ absolute / metric / decimal}
; #@! TF.CreationDate,2026-01-19T16:19:15-08:00
; #@! TF.GenerationSoftware,Kicad,Pcbnew,9.0.7
; #@! TF.FileFunction,NonPlated,1,2,NPTH
FMAT,2
METRIC
; #@! TA.AperFunction,NonPlated,NPTH,ComponentDrill
T1C0.991
; #@! TA.AperFunction,NonPlated,NPTH,ComponentDrill
T2C1.702
; #@! TA.AperFunction,NonPlated,NPTH,ComponentDrill
T3C3.429
%
G90
G05
T1
X60.3Y-107.78
X60.3Y-118.22
X76.78Y-91.8
X76.78Y-108.8
X76.78Y-125.8
X87.22Y-91.8
X87.22Y-108.8
X87.22Y-125.8
X94.78Y-61.8
X94.78Y-78.8
X94.78Y-95.8
X94.78Y-112.8
X105.22Y-61.8
X105.22Y-78.8
X105.22Y-95.8
X105.22Y-112.8
X112.78Y-56.8
X112.78Y-73.8
X112.78Y-90.8
X112.78Y-107.8
X123.22Y-56.8
X123.22Y-73.8
X123.22Y-90.8
X123.22Y-107.8
X126.28Y-129.8
X130.78Y-78.8
X130.78Y-95.8
X130.78Y-112.8
X136.72Y-129.8
X141.22Y-78.8
X141.22Y-95.8
X141.22Y-112.8
X148.78Y-87.3
X148.78Y-104.3
X152.045Y-128.216
X159.22Y-87.3
X159.22Y-104.3
X162.129Y-130.918
X171.931Y-152.762
X179.313Y-145.38
T2
X64.5Y-107.5
X64.5Y-118.5
X76.5Y-96.0
X76.5Y-113.0
X76.5Y-130.0
X87.5Y-96.0
X87.5Y-113.0
X87.5Y-130.0
X94.5Y-66.0
X94.5Y-83.0
X94.5Y-100.0
X94.5Y-117.0
X105.5Y-66.0
X105.5Y-83.0
X105.5Y-100.0
X105.5Y-117.0
X112.5Y-61.0
X112.5Y-78.0
X112.5Y-95.0
X112.5Y-112.0
X123.5Y-61.0
X123.5Y-78.0
X123.5Y-95.0
X123.5Y-112.0
X126.0Y-134.0
X130.5Y-83.0
X130.5Y-100.0
X130.5Y-117.0
X137.0Y-134.0
X141.5Y-83.0
X141.5Y-100.0
X141.5Y-117.0
X148.5Y-91.5
X148.5Y-108.5
X150.687Y-132.2
X159.5Y-91.5
X159.5Y-108.5
X161.313Y-135.047
X168.763Y-149.991
X176.542Y-142.212
T3
X64.5Y-113.0
X82.0Y-96.0
X82.0Y-113.0
X82.0Y-130.0
X100.0Y-66.0
X100.0Y-83.0
X100.0Y-100.0
X100.0Y-117.0
X118.0Y-61.0
X118.0Y-78.0
X118.0Y-95.0
X118.0Y-112.0
X131.5Y-134.0
X136.0Y-83.0
X136.0Y-100.0
X136.0Y-117.0
X154.0Y-91.5
X154.0Y-108.5
X156.0Y-133.624
X172.653Y-146.101
M30
