M48
; DRILL file {KiCad 7.0.10} date Wed May  1 10:45:37 2024
; FORMAT={-:-/ absolute / inch / decimal}
; #@! TF.CreationDate,2024-05-01T10:45:37+02:00
; #@! TF.GenerationSoftware,Kicad,Pcbnew,7.0.10
; #@! TF.FileFunction,NonPlated,1,2,NPTH
FMAT,2
INCH
; #@! TA.AperFunction,NonPlated,NPTH,ComponentDrill
T1C0.0670
; #@! TA.AperFunction,NonPlated,NPTH,ComponentDrill
T2C0.1181
; #@! TA.AperFunction,NonPlated,NPTH,ComponentDrill
T3C0.1570
; #@! TA.AperFunction,NonPlated,NPTH,ComponentDrill
T4C0.1575
%
G90
G05
T1
X3.6614Y-4.4063
X3.6614Y-4.8063
X4.2094Y-3.8583
X4.2094Y-4.6063
X4.2094Y-5.3543
X4.6094Y-3.8583
X4.6094Y-4.6063
X4.6094Y-5.3543
X4.9575Y-2.5984
X4.9575Y-3.3465
X4.9575Y-4.0945
X4.9575Y-4.8425
X5.3575Y-2.5984
X5.3575Y-3.3465
X5.3575Y-4.0945
X5.3575Y-4.8425
X5.7055Y-2.4016
X5.7055Y-3.1496
X5.7055Y-3.8976
X5.7055Y-4.6457
X6.1055Y-2.4016
X6.1055Y-3.1496
X6.1055Y-3.8976
X6.1055Y-4.6457
X6.3591Y-5.5906
X6.4535Y-3.3465
X6.4535Y-4.0945
X6.4535Y-4.8425
X6.7591Y-5.5906
X6.8535Y-3.3465
X6.8535Y-4.0945
X6.8535Y-4.8425
X7.2016Y-3.7205
X7.2016Y-4.4685
X7.2961Y-5.4134
X7.6016Y-3.7205
X7.6016Y-4.4685
X7.6961Y-5.4134
X8.3859Y-5.5968
X8.7323Y-5.7968
T2
X3.4614Y-4.5063
X3.5614Y-4.7563
X3.7614Y-4.7563
X3.8614Y-4.5063
X4.2594Y-3.7583
X4.2594Y-3.9583
X4.2594Y-4.5063
X4.2594Y-4.7063
X4.2594Y-5.2543
X4.2594Y-5.4543
X4.5094Y-3.6583
X4.5094Y-4.0583
X4.5094Y-4.4063
X4.5094Y-4.8063
X4.5094Y-5.1543
X4.5094Y-5.5543
X5.0075Y-2.4984
X5.0075Y-2.6984
X5.0075Y-3.2465
X5.0075Y-3.4465
X5.0075Y-3.9945
X5.0075Y-4.1945
X5.0075Y-4.7425
X5.0075Y-4.9425
X5.2575Y-2.3984
X5.2575Y-2.7984
X5.2575Y-3.1465
X5.2575Y-3.5465
X5.2575Y-3.8945
X5.2575Y-4.2945
X5.2575Y-4.6425
X5.2575Y-5.0425
X5.7555Y-2.3016
X5.7555Y-2.5016
X5.7555Y-3.0496
X5.7555Y-3.2496
X5.7555Y-3.7976
X5.7555Y-3.9976
X5.7555Y-4.5457
X5.7555Y-4.7457
X6.0055Y-2.2016
X6.0055Y-2.6016
X6.0055Y-2.9496
X6.0055Y-3.3496
X6.0055Y-3.6976
X6.0055Y-4.0976
X6.0055Y-4.4457
X6.0055Y-4.8457
X6.4091Y-5.4906
X6.4091Y-5.6906
X6.5035Y-3.2465
X6.5035Y-3.4465
X6.5035Y-3.9945
X6.5035Y-4.1945
X6.5035Y-4.7425
X6.5035Y-4.9425
X6.6591Y-5.3906
X6.6591Y-5.7906
X6.7535Y-3.1465
X6.7535Y-3.5465
X6.7535Y-3.8945
X6.7535Y-4.2945
X6.7535Y-4.6425
X6.7535Y-5.0425
X7.2516Y-3.6205
X7.2516Y-3.8205
X7.2516Y-4.3685
X7.2516Y-4.5685
X7.3461Y-5.3134
X7.3461Y-5.5134
X7.5016Y-3.5205
X7.5016Y-3.9205
X7.5016Y-4.2685
X7.5016Y-4.6685
X7.5961Y-5.2134
X7.5961Y-5.6134
X8.3792Y-5.7084
X8.4792Y-5.5352
X8.5457Y-5.92
X8.7457Y-5.5736
T3
X3.6614Y-4.6063
X4.4094Y-3.8583
X4.4094Y-4.6063
X4.4094Y-5.3543
X5.1575Y-2.5984
X5.1575Y-3.3465
X5.1575Y-4.0945
X5.1575Y-4.8425
X5.9055Y-2.4016
X5.9055Y-3.1496
X5.9055Y-3.8976
X5.9055Y-4.6457
X6.5591Y-5.5906
X6.6535Y-3.3465
X6.6535Y-4.0945
X6.6535Y-4.8425
X7.4016Y-3.7205
X7.4016Y-4.4685
X7.4961Y-5.4134
X8.5591Y-5.6968
T4
X4.8228Y-4.4685
X5.4331Y-2.9724
X6.1811Y-4.2717
X6.8898Y-2.9134
X7.0276Y-5.5906
M30
