M48
; DRILL file {KiCad 9.0.7} date 2026-01-18T21:16:18-0800
; FORMAT={-:-/ absolute / metric / decimal}
; #@! TF.CreationDate,2026-01-18T21:16:18-08:00
; #@! TF.GenerationSoftware,Kicad,Pcbnew,9.0.7
; #@! TF.FileFunction,Plated,1,2,PTH
FMAT,2
METRIC
; #@! TA.AperFunction,Plated,PTH,ViaDrill
T1C0.400
; #@! TA.AperFunction,Plated,PTH,ComponentDrill
T2C0.750
; #@! TA.AperFunction,Plated,PTH,ComponentDrill
T3C1.092
; #@! TA.AperFunction,Plated,PTH,ComponentDrill
T4C1.270
; #@! TA.AperFunction,Plated,PTH,ComponentDrill
T5C2.200
%
G90
G05
T1
X82.75Y-82.75
X153.75Y-59.75
X155.0Y-73.5
X161.75Y-70.25
X162.75Y-71.0
X169.25Y-73.75
T2
X147.21Y-76.0
X147.21Y-78.0
T3
X132.14Y-52.76
X132.14Y-68.0
X134.68Y-52.76
X134.68Y-68.0
X137.22Y-52.76
X137.22Y-55.3
X137.22Y-57.84
X137.22Y-60.38
X137.22Y-62.92
X137.22Y-65.46
X137.22Y-68.0
X139.76Y-52.76
X139.76Y-68.0
X142.3Y-52.76
X142.3Y-68.0
X144.84Y-52.76
X144.84Y-68.0
X147.38Y-52.76
X147.38Y-68.0
X149.92Y-52.76
X149.92Y-68.0
X152.46Y-52.76
X152.46Y-68.0
X155.0Y-52.76
X155.0Y-68.0
X157.54Y-52.76
X157.54Y-68.0
X160.08Y-52.76
X160.08Y-68.0
T4
X68.3Y-108.0
X68.3Y-118.0
X70.4Y-113.0
X77.0Y-99.8
X77.0Y-116.8
X77.0Y-133.8
X82.0Y-101.9
X82.0Y-118.9
X82.0Y-135.9
X87.0Y-99.8
X87.0Y-116.8
X87.0Y-133.8
X95.0Y-69.8
X95.0Y-86.8
X95.0Y-103.8
X95.0Y-120.8
X100.0Y-71.9
X100.0Y-88.9
X100.0Y-105.9
X100.0Y-122.9
X105.0Y-69.8
X105.0Y-86.8
X105.0Y-103.8
X105.0Y-120.8
X113.0Y-64.8
X113.0Y-81.8
X113.0Y-98.8
X113.0Y-115.8
X118.0Y-66.9
X118.0Y-83.9
X118.0Y-100.9
X118.0Y-117.9
X123.0Y-64.8
X123.0Y-81.8
X123.0Y-98.8
X123.0Y-115.8
X126.5Y-137.8
X131.0Y-86.8
X131.0Y-103.8
X131.0Y-120.8
X131.5Y-139.9
X136.0Y-88.9
X136.0Y-105.9
X136.0Y-122.9
X136.5Y-137.8
X141.0Y-86.8
X141.0Y-103.8
X141.0Y-120.8
X149.0Y-95.3
X149.0Y-112.3
X150.19Y-138.99
X154.0Y-97.4
X154.0Y-114.4
X154.476Y-142.313
X159.0Y-95.3
X159.0Y-112.3
X159.849Y-141.578
X171.89Y-144.51
X173.941Y-139.49
X178.961Y-137.439
T5
X107.95Y-91.5
X127.0Y-72.45
X127.0Y-110.55
M30
