%TF.GenerationSoftware,KiCad,Pcbnew,9.0.7*%
%TF.CreationDate,2026-01-18T21:16:20-08:00*%
%TF.ProjectId,talon_slim,74616c6f-6e5f-4736-9c69-6d2e6b696361,rev?*%
%TF.SameCoordinates,Original*%
%TF.FileFunction,Soldermask,Top*%
%TF.FilePolarity,Negative*%
%FSLAX46Y46*%
G04 Gerber Fmt 4.6, Leading zero omitted, Abs format (unit mm)*
G04 Created by KiCad (PCBNEW 9.0.7) date 2026-01-18 21:16:20*
%MOMM*%
%LPD*%
G01*
G04 APERTURE LIST*
G04 Aperture macros list*
%AMRoundRect*
0 Rectangle with rounded corners*
0 $1 Rounding radius*
0 $2 $3 $4 $5 $6 $7 $8 $9 X,Y pos of 4 corners*
0 Add a 4 corners polygon primitive as box body*
4,1,4,$2,$3,$4,$5,$6,$7,$8,$9,$2,$3,0*
0 Add four circle primitives for the rounded corners*
1,1,$1+$1,$2,$3*
1,1,$1+$1,$4,$5*
1,1,$1+$1,$6,$7*
1,1,$1+$1,$8,$9*
0 Add four rect primitives between the rounded corners*
20,1,$1+$1,$2,$3,$4,$5,0*
20,1,$1+$1,$4,$5,$6,$7,0*
20,1,$1+$1,$6,$7,$8,$9,0*
20,1,$1+$1,$8,$9,$2,$3,0*%
%AMFreePoly0*
4,1,23,0.500000,-0.750000,0.000000,-0.750000,0.000000,-0.745722,-0.065263,-0.745722,-0.191342,-0.711940,-0.304381,-0.646677,-0.396677,-0.554381,-0.461940,-0.441342,-0.495722,-0.315263,-0.495722,-0.250000,-0.500000,-0.250000,-0.500000,0.250000,-0.495722,0.250000,-0.495722,0.315263,-0.461940,0.441342,-0.396677,0.554381,-0.304381,0.646677,-0.191342,0.711940,-0.065263,0.745722,0.000000,0.745722,
0.000000,0.750000,0.500000,0.750000,0.500000,-0.750000,0.500000,-0.750000,$1*%
%AMFreePoly1*
4,1,23,0.000000,0.745722,0.065263,0.745722,0.191342,0.711940,0.304381,0.646677,0.396677,0.554381,0.461940,0.441342,0.495722,0.315263,0.495722,0.250000,0.500000,0.250000,0.500000,-0.250000,0.495722,-0.250000,0.495722,-0.315263,0.461940,-0.441342,0.396677,-0.554381,0.304381,-0.646677,0.191342,-0.711940,0.065263,-0.745722,0.000000,-0.745722,0.000000,-0.750000,-0.500000,-0.750000,
-0.500000,0.750000,0.000000,0.750000,0.000000,0.745722,0.000000,0.745722,$1*%
G04 Aperture macros list end*
%ADD10RoundRect,0.250000X0.625000X-0.350000X0.625000X0.350000X-0.625000X0.350000X-0.625000X-0.350000X0*%
%ADD11O,1.750000X1.200000*%
%ADD12C,4.400000*%
%ADD13R,1.550000X1.000000*%
%ADD14RoundRect,0.102000X0.350000X0.750000X-0.350000X0.750000X-0.350000X-0.750000X0.350000X-0.750000X0*%
%ADD15RoundRect,0.102000X0.500000X0.400000X-0.500000X0.400000X-0.500000X-0.400000X0.500000X-0.400000X0*%
%ADD16C,1.701800*%
%ADD17C,0.990600*%
%ADD18C,3.429000*%
%ADD19C,2.032000*%
%ADD20FreePoly0,0.000000*%
%ADD21FreePoly1,0.000000*%
%ADD22FreePoly0,90.000000*%
%ADD23FreePoly1,90.000000*%
%ADD24C,1.752600*%
%ADD25FreePoly1,180.000000*%
%ADD26FreePoly0,180.000000*%
G04 APERTURE END LIST*
%TO.C,JP16*%
G36*
X158060000Y-78000000D02*
G01*
X158360000Y-78000000D01*
X158360000Y-79500000D01*
X158060000Y-79500000D01*
X158060000Y-78000000D01*
G37*
G36*
X158650000Y-78000000D02*
G01*
X158950000Y-78000000D01*
X158950000Y-79500000D01*
X158650000Y-79500000D01*
X158650000Y-78000000D01*
G37*
%TO.C,JP10*%
G36*
X158060000Y-74750000D02*
G01*
X158360000Y-74750000D01*
X158360000Y-76250000D01*
X158060000Y-76250000D01*
X158060000Y-74750000D01*
G37*
G36*
X158650000Y-74750000D02*
G01*
X158950000Y-74750000D01*
X158950000Y-76250000D01*
X158650000Y-76250000D01*
X158650000Y-74750000D01*
G37*
%TO.C,JP9*%
G36*
X159200000Y-71050000D02*
G01*
X160700000Y-71050000D01*
X160700000Y-70750000D01*
X159200000Y-70750000D01*
X159200000Y-71050000D01*
G37*
G36*
X159200000Y-71800000D02*
G01*
X160700000Y-71800000D01*
X160700000Y-71500000D01*
X159200000Y-71500000D01*
X159200000Y-71800000D01*
G37*
%TO.C,JP14*%
G36*
X151750000Y-71100000D02*
G01*
X153250000Y-71100000D01*
X153250000Y-70800000D01*
X151750000Y-70800000D01*
X151750000Y-71100000D01*
G37*
G36*
X151750000Y-71690000D02*
G01*
X153250000Y-71690000D01*
X153250000Y-71390000D01*
X151750000Y-71390000D01*
X151750000Y-71690000D01*
G37*
%TO.C,JP13*%
G36*
X154250000Y-71100000D02*
G01*
X155750000Y-71100000D01*
X155750000Y-70800000D01*
X154250000Y-70800000D01*
X154250000Y-71100000D01*
G37*
G36*
X154250000Y-71690000D02*
G01*
X155750000Y-71690000D01*
X155750000Y-71390000D01*
X154250000Y-71390000D01*
X154250000Y-71690000D01*
G37*
%TO.C,JP1*%
G36*
X161360000Y-50750000D02*
G01*
X161060000Y-50750000D01*
X161060000Y-49250000D01*
X161360000Y-49250000D01*
X161360000Y-50750000D01*
G37*
G36*
X160610000Y-50750000D02*
G01*
X160310000Y-50750000D01*
X160310000Y-49250000D01*
X160610000Y-49250000D01*
X160610000Y-50750000D01*
G37*
%TO.C,JP4*%
G36*
X157400000Y-49250000D02*
G01*
X157700000Y-49250000D01*
X157700000Y-50750000D01*
X157400000Y-50750000D01*
X157400000Y-49250000D01*
G37*
G36*
X156810000Y-49250000D02*
G01*
X157110000Y-49250000D01*
X157110000Y-50750000D01*
X156810000Y-50750000D01*
X156810000Y-49250000D01*
G37*
%TO.C,JP5*%
G36*
X153900000Y-49250000D02*
G01*
X154200000Y-49250000D01*
X154200000Y-50750000D01*
X153900000Y-50750000D01*
X153900000Y-49250000D01*
G37*
G36*
X153310000Y-49250000D02*
G01*
X153610000Y-49250000D01*
X153610000Y-50750000D01*
X153310000Y-50750000D01*
X153310000Y-49250000D01*
G37*
%TD*%
D10*
%TO.C,J1*%
X147210000Y-78000000D03*
D11*
X147210000Y-76000000D03*
%TD*%
D12*
%TO.C,REF\u002A\u002A*%
X107950000Y-91500000D03*
X127000000Y-72450000D03*
X127000000Y-110550000D03*
%TD*%
D13*
%TO.C,RESET_SW1*%
X79125000Y-82700000D03*
X84375000Y-82700000D03*
X79125000Y-84400000D03*
X84375000Y-84400000D03*
%TD*%
D14*
%TO.C,SLIDE_SW1*%
X171400000Y-75350000D03*
X168400000Y-75350000D03*
X166900000Y-75350000D03*
D15*
X172800000Y-74700000D03*
X165500000Y-74700000D03*
X172800000Y-72500000D03*
X165500000Y-72500000D03*
%TD*%
D16*
%TO.C,SW20*%
X182001627Y-139772385D03*
D17*
X184773486Y-142940223D03*
D18*
X178112540Y-143661472D03*
D17*
X177391291Y-150322418D03*
D16*
X174223453Y-147550559D03*
D19*
X173940610Y-139489542D03*
X178961068Y-137438932D03*
X171890000Y-144510000D03*
%TD*%
D16*
%TO.C,SW18*%
X126000000Y-134000000D03*
D17*
X126280000Y-129800000D03*
D18*
X131500000Y-134000000D03*
D17*
X136720000Y-129800000D03*
D16*
X137000000Y-134000000D03*
D19*
X131500000Y-139900000D03*
X126500000Y-137800000D03*
X136500000Y-137800000D03*
%TD*%
%TO.C,SW13*%
X159000000Y-112300000D03*
X149000000Y-112300000D03*
X154000000Y-114400000D03*
D16*
X159500000Y-108500000D03*
D17*
X159220000Y-104300000D03*
D18*
X154000000Y-108500000D03*
D17*
X148780000Y-104300000D03*
D16*
X148500000Y-108500000D03*
%TD*%
%TO.C,SW6*%
X130500000Y-83000000D03*
D17*
X130780000Y-78800000D03*
D18*
X136000000Y-83000000D03*
D17*
X141220000Y-78800000D03*
D16*
X141500000Y-83000000D03*
D19*
X136000000Y-88900000D03*
X131000000Y-86800000D03*
X141000000Y-86800000D03*
%TD*%
D16*
%TO.C,SW8*%
X64500000Y-118500000D03*
D17*
X60300000Y-118220000D03*
D18*
X64500000Y-113000000D03*
D17*
X60300000Y-107780000D03*
D16*
X64500000Y-107500000D03*
D19*
X70400000Y-113000000D03*
X68300000Y-118000000D03*
X68300000Y-108000000D03*
%TD*%
D20*
%TO.C,JP16*%
X157750000Y-78750000D03*
D21*
X159250000Y-78750000D03*
%TD*%
D20*
%TO.C,JP10*%
X157750000Y-75500000D03*
D21*
X159250000Y-75500000D03*
%TD*%
D19*
%TO.C,SW19*%
X159849259Y-141578190D03*
X150190000Y-138990000D03*
X154476110Y-142312539D03*
D16*
X161315734Y-138037082D03*
D17*
X162132315Y-133907724D03*
D18*
X156003142Y-136613577D03*
D17*
X152048049Y-131205653D03*
D16*
X150690550Y-135190072D03*
%TD*%
D19*
%TO.C,SW15*%
X105000000Y-120800000D03*
X95000000Y-120800000D03*
X100000000Y-122900000D03*
D16*
X105500000Y-117000000D03*
D17*
X105220000Y-112800000D03*
D18*
X100000000Y-117000000D03*
D17*
X94780000Y-112800000D03*
D16*
X94500000Y-117000000D03*
%TD*%
%TO.C,SW14*%
X76500000Y-130000000D03*
D17*
X76780000Y-125800000D03*
D18*
X82000000Y-130000000D03*
D17*
X87220000Y-125800000D03*
D16*
X87500000Y-130000000D03*
D19*
X82000000Y-135900000D03*
X77000000Y-133800000D03*
X87000000Y-133800000D03*
%TD*%
D22*
%TO.C,JP9*%
X159950000Y-72190000D03*
D23*
X159950000Y-70390000D03*
%TD*%
D16*
%TO.C,SW1*%
X94500000Y-66000000D03*
D17*
X94780000Y-61800000D03*
D18*
X100000000Y-66000000D03*
D17*
X105220000Y-61800000D03*
D16*
X105500000Y-66000000D03*
D19*
X100000000Y-71900000D03*
X95000000Y-69800000D03*
X105000000Y-69800000D03*
%TD*%
D16*
%TO.C,SW10*%
X94500000Y-100000000D03*
D17*
X94780000Y-95800000D03*
D18*
X100000000Y-100000000D03*
D17*
X105220000Y-95800000D03*
D16*
X105500000Y-100000000D03*
D19*
X100000000Y-105900000D03*
X95000000Y-103800000D03*
X105000000Y-103800000D03*
%TD*%
D16*
%TO.C,SW3*%
X76500000Y-96000000D03*
D17*
X76780000Y-91800000D03*
D18*
X82000000Y-96000000D03*
D17*
X87220000Y-91800000D03*
D16*
X87500000Y-96000000D03*
D19*
X82000000Y-101900000D03*
X77000000Y-99800000D03*
X87000000Y-99800000D03*
%TD*%
D16*
%TO.C,SW16*%
X112500000Y-112000000D03*
D17*
X112780000Y-107800000D03*
D18*
X118000000Y-112000000D03*
D17*
X123220000Y-107800000D03*
D16*
X123500000Y-112000000D03*
D19*
X118000000Y-117900000D03*
X113000000Y-115800000D03*
X123000000Y-115800000D03*
%TD*%
D22*
%TO.C,JP14*%
X152500000Y-72000000D03*
D23*
X152500000Y-70500000D03*
%TD*%
D16*
%TO.C,SW2*%
X112500000Y-61000000D03*
D17*
X112780000Y-56800000D03*
D18*
X118000000Y-61000000D03*
D17*
X123220000Y-56800000D03*
D16*
X123500000Y-61000000D03*
D19*
X118000000Y-66900000D03*
X113000000Y-64800000D03*
X123000000Y-64800000D03*
%TD*%
D16*
%TO.C,SW4*%
X94500000Y-83000000D03*
D17*
X94780000Y-78800000D03*
D18*
X100000000Y-83000000D03*
D17*
X105220000Y-78800000D03*
D16*
X105500000Y-83000000D03*
D19*
X100000000Y-88900000D03*
X95000000Y-86800000D03*
X105000000Y-86800000D03*
%TD*%
D16*
%TO.C,SW9*%
X76500000Y-113000000D03*
D17*
X76780000Y-108800000D03*
D18*
X82000000Y-113000000D03*
D17*
X87220000Y-108800000D03*
D16*
X87500000Y-113000000D03*
D19*
X82000000Y-118900000D03*
X77000000Y-116800000D03*
X87000000Y-116800000D03*
%TD*%
D22*
%TO.C,JP13*%
X155000000Y-72000000D03*
D23*
X155000000Y-70500000D03*
%TD*%
D16*
%TO.C,SW11*%
X112500000Y-95000000D03*
D17*
X112780000Y-90800000D03*
D18*
X118000000Y-95000000D03*
D17*
X123220000Y-90800000D03*
D16*
X123500000Y-95000000D03*
D19*
X118000000Y-100900000D03*
X113000000Y-98800000D03*
X123000000Y-98800000D03*
%TD*%
D16*
%TO.C,SW7*%
X148500000Y-91500000D03*
D17*
X148780000Y-87300000D03*
D18*
X154000000Y-91500000D03*
D17*
X159220000Y-87300000D03*
D16*
X159500000Y-91500000D03*
D19*
X154000000Y-97400000D03*
X149000000Y-95300000D03*
X159000000Y-95300000D03*
%TD*%
D16*
%TO.C,SW12*%
X130500000Y-100000000D03*
D17*
X130780000Y-95800000D03*
D18*
X136000000Y-100000000D03*
D17*
X141220000Y-95800000D03*
D16*
X141500000Y-100000000D03*
D19*
X136000000Y-105900000D03*
X131000000Y-103800000D03*
X141000000Y-103800000D03*
%TD*%
D16*
%TO.C,SW17*%
X130500000Y-117000000D03*
D17*
X130780000Y-112800000D03*
D18*
X136000000Y-117000000D03*
D17*
X141220000Y-112800000D03*
D16*
X141500000Y-117000000D03*
D19*
X136000000Y-122900000D03*
X131000000Y-120800000D03*
X141000000Y-120800000D03*
%TD*%
D16*
%TO.C,SW5*%
X112500000Y-78000000D03*
D17*
X112780000Y-73800000D03*
D18*
X118000000Y-78000000D03*
D17*
X123220000Y-73800000D03*
D16*
X123500000Y-78000000D03*
D19*
X118000000Y-83900000D03*
X113000000Y-81800000D03*
X123000000Y-81800000D03*
%TD*%
D24*
%TO.C,U1*%
X137220000Y-60380000D03*
X137220000Y-57840000D03*
X137220000Y-62920000D03*
X137220000Y-55300000D03*
X137220000Y-65460000D03*
X160080000Y-68000000D03*
X157540000Y-68000000D03*
X155000000Y-68000000D03*
X152460000Y-68000000D03*
X149920000Y-68000000D03*
X147380000Y-68000000D03*
X144840000Y-68000000D03*
X142300000Y-68000000D03*
X139760000Y-68000000D03*
X137220000Y-68000000D03*
X134680000Y-68000000D03*
X132140000Y-68000000D03*
X132140000Y-52760000D03*
X134680000Y-52760000D03*
X137220000Y-52760000D03*
X139760000Y-52760000D03*
X142300000Y-52760000D03*
X144840000Y-52760000D03*
X147380000Y-52760000D03*
X149920000Y-52760000D03*
X152460000Y-52760000D03*
X155000000Y-52760000D03*
X157540000Y-52760000D03*
X160080000Y-52760000D03*
%TD*%
D25*
%TO.C,JP1*%
X159950000Y-50000000D03*
D26*
X161750000Y-50000000D03*
%TD*%
D21*
%TO.C,JP4*%
X158000000Y-50000000D03*
D20*
X156500000Y-50000000D03*
%TD*%
D21*
%TO.C,JP5*%
X154500000Y-50000000D03*
D20*
X153000000Y-50000000D03*
%TD*%
M02*
