%TF.GenerationSoftware,KiCad,Pcbnew,9.0.7*%
%TF.CreationDate,2026-01-19T16:19:19-08:00*%
%TF.ProjectId,talon_slim,74616c6f-6e5f-4736-9c69-6d2e6b696361,rev?*%
%TF.SameCoordinates,Original*%
%TF.FileFunction,Profile,NP*%
%FSLAX46Y46*%
G04 Gerber Fmt 4.6, Leading zero omitted, Abs format (unit mm)*
G04 Created by KiCad (PCBNEW 9.0.7) date 2026-01-19 16:19:19*
%MOMM*%
%LPD*%
G01*
G04 APERTURE LIST*
%TA.AperFunction,Profile*%
%ADD10C,0.100000*%
%TD*%
%ADD11C,0.100000*%
G04 APERTURE END LIST*
D10*
X73000000Y-90000000D02*
G75*
G02*
X75500000Y-87500000I2500000J0D01*
G01*
X182348664Y-83000000D02*
G75*
G02*
X185030000Y-85660000I21251J-2660000D01*
G01*
X185030500Y-144720000D02*
G75*
G02*
X184190000Y-146590000I-2500500J0D01*
G01*
X185030500Y-144720000D02*
X185030000Y-85660000D01*
X174070000Y-156709999D02*
X184190000Y-146590000D01*
X174070000Y-156710000D02*
G75*
G02*
X170534466Y-156710000I-1767767J1767767D01*
G01*
X109000000Y-55000000D02*
G75*
G02*
X111500000Y-52500000I2500000J0D01*
G01*
X91000000Y-136000000D02*
X91000000Y-128000000D01*
X91000000Y-128000000D02*
G75*
G02*
X93500000Y-125500000I2500000J0D01*
G01*
D11*
X145000000Y-142500000D02*
X145075036Y-142500011D01*
X145150253Y-142500044D01*
X145216118Y-142500095D01*
X145282118Y-142500168D01*
X145342333Y-142500256D01*
X145402658Y-142500365D01*
X145458885Y-142500488D01*
X145515205Y-142500632D01*
X145568397Y-142500788D01*
X145621671Y-142500966D01*
X145672443Y-142501157D01*
X145723286Y-142501368D01*
X145772061Y-142501591D01*
X145820900Y-142501835D01*
X145867986Y-142502091D01*
X145915131Y-142502368D01*
X145960761Y-142502656D01*
X146006446Y-142502966D01*
X146050803Y-142503286D01*
X146095211Y-142503628D01*
X146138440Y-142503981D01*
X146181716Y-142504355D01*
X146223936Y-142504740D01*
X146266200Y-142505146D01*
X146307508Y-142505562D01*
X146348859Y-142506000D01*
X146389339Y-142506449D01*
X146429858Y-142506919D01*
X146469579Y-142507399D01*
X146509338Y-142507901D01*
X146548362Y-142508413D01*
X146587420Y-142508947D01*
X146625798Y-142509491D01*
X146664209Y-142510056D01*
X146701986Y-142510632D01*
X146739796Y-142511229D01*
X146777013Y-142511836D01*
X146814261Y-142512465D01*
X146850955Y-142513104D01*
X146887677Y-142513764D01*
X146923878Y-142514435D01*
X146960107Y-142515126D01*
X146995845Y-142515829D01*
X147031609Y-142516552D01*
X147066908Y-142517286D01*
X147102233Y-142518041D01*
X147137118Y-142518806D01*
X147172027Y-142519593D01*
X147206517Y-142520390D01*
X147241032Y-142521208D01*
X147275148Y-142522036D01*
X147309288Y-142522886D01*
X147343047Y-142523746D01*
X147376829Y-142524627D01*
X147410248Y-142525518D01*
X147443688Y-142526430D01*
X147476781Y-142527353D01*
X147509895Y-142528297D01*
X147542676Y-142529252D01*
X147575477Y-142530227D01*
X147607959Y-142531213D01*
X147640460Y-142532220D01*
X147672655Y-142533237D01*
X147704868Y-142534275D01*
X147736786Y-142535324D01*
X147768722Y-142536393D01*
X147800374Y-142537473D01*
X147832043Y-142538574D01*
X147863439Y-142539686D01*
X147894851Y-142540818D01*
X147925998Y-142541961D01*
X147957162Y-142543125D01*
X147988070Y-142544299D01*
X148018994Y-142545494D01*
X148049671Y-142546699D01*
X148080363Y-142547926D01*
X148110816Y-142549163D01*
X148141283Y-142550420D01*
X148171519Y-142551689D01*
X148201769Y-142552978D01*
X148231794Y-142554277D01*
X148261833Y-142555597D01*
X148291654Y-142556928D01*
X148321489Y-142558280D01*
X148351111Y-142559642D01*
X148380747Y-142561025D01*
X148410177Y-142562418D01*
X148439619Y-142563832D01*
X148468861Y-142565257D01*
X148498116Y-142566702D01*
X148527175Y-142568158D01*
X148556247Y-142569635D01*
X148585128Y-142571122D01*
X148614022Y-142572630D01*
X148642730Y-142574148D01*
X148671450Y-142575687D01*
X148699990Y-142577237D01*
X148728541Y-142578807D01*
X148756915Y-142580388D01*
X148785301Y-142581989D01*
X148813515Y-142583601D01*
X148841739Y-142585234D01*
X148869796Y-142586877D01*
X148897862Y-142588540D01*
X148925766Y-142590215D01*
X148953679Y-142591910D01*
X148981432Y-142593615D01*
X149009194Y-142595341D01*
X149036800Y-142597078D01*
X149064416Y-142598835D01*
X149091878Y-142600602D01*
X149119350Y-142602391D01*
X149146672Y-142604189D01*
X149174002Y-142606009D01*
X149201186Y-142607839D01*
X149228379Y-142609689D01*
X149255428Y-142611550D01*
X149282485Y-142613432D01*
X149309402Y-142615324D01*
X149336326Y-142617236D01*
X149363113Y-142619159D01*
X149389908Y-142621103D01*
X149416568Y-142623057D01*
X149443235Y-142625032D01*
X149469770Y-142627017D01*
X149496312Y-142629022D01*
X149522724Y-142631038D01*
X149549143Y-142633075D01*
X149575435Y-142635122D01*
X149601733Y-142637190D01*
X149627907Y-142639268D01*
X149654087Y-142641366D01*
X149680144Y-142643475D01*
X149706208Y-142645605D01*
X149732151Y-142647745D01*
X149758100Y-142649906D01*
X149783931Y-142652076D01*
X149809768Y-142654268D01*
X149835488Y-142656470D01*
X149861215Y-142658692D01*
X149886826Y-142660925D01*
X149912444Y-142663178D01*
X149937948Y-142665442D01*
X149963459Y-142667726D01*
X149988858Y-142670020D01*
X150014263Y-142672335D01*
X150039559Y-142674661D01*
X150064861Y-142677007D01*
X150090054Y-142679363D01*
X150115254Y-142681740D01*
X150140347Y-142684127D01*
X150165445Y-142686534D01*
X150190440Y-142688952D01*
X150215439Y-142691391D01*
X150240336Y-142693839D01*
X150265237Y-142696308D01*
X150290038Y-142698788D01*
X150314843Y-142701288D01*
X150339549Y-142703798D01*
X150364260Y-142706329D01*
X150388872Y-142708870D01*
X150413489Y-142711431D01*
X150438009Y-142714003D01*
X150462533Y-142716595D01*
X150486962Y-142719198D01*
X150511396Y-142721821D01*
X150535735Y-142724454D01*
X150560079Y-142727107D01*
X150584329Y-142729771D01*
X150608584Y-142732456D01*
X150632748Y-142735150D01*
X150656915Y-142737865D01*
X150680992Y-142740590D01*
X150705073Y-142743336D01*
X150729064Y-142746092D01*
X150753060Y-142748869D01*
X150776967Y-142751655D01*
X150800879Y-142754462D01*
X150824703Y-142757279D01*
X150848531Y-142760117D01*
X150872273Y-142762965D01*
X150896019Y-142765833D01*
X150919680Y-142768711D01*
X150943344Y-142771610D01*
X150966925Y-142774519D01*
X150990509Y-142777448D01*
X151014011Y-142780388D01*
X151037516Y-142783348D01*
X151060939Y-142786318D01*
X151084365Y-142789309D01*
X151107711Y-142792309D01*
X151131060Y-142795330D01*
X151154329Y-142798361D01*
X151177601Y-142801413D01*
X151200794Y-142804475D01*
X151223990Y-142807557D01*
X151247109Y-142810649D01*
X151270230Y-142813761D01*
X151293274Y-142816884D01*
X151316321Y-142820027D01*
X151339292Y-142823180D01*
X151362265Y-142826354D01*
X151385164Y-142829537D01*
X151408064Y-142832741D01*
X151430891Y-142835955D01*
X151453720Y-142839190D01*
X151476475Y-142842434D01*
X151499233Y-142845699D01*
X151521918Y-142848974D01*
X151544605Y-142852269D01*
X151567220Y-142855574D01*
X151589838Y-142858900D01*
X151612384Y-142862235D01*
X151634932Y-142865592D01*
X151657411Y-142868957D01*
X151679890Y-142872344D01*
X151702301Y-142875740D01*
X151724713Y-142879157D01*
X151747057Y-142882584D01*
X151769402Y-142886031D01*
X151791679Y-142889488D01*
X151813958Y-142892965D01*
X151836169Y-142896452D01*
X151858382Y-142899960D01*
X151880528Y-142903478D01*
X151902676Y-142907016D01*
X151924758Y-142910564D01*
X151946841Y-142914132D01*
X151968859Y-142917710D01*
X151990877Y-142921309D01*
X152012832Y-142924917D01*
X152034788Y-142928546D01*
X152056679Y-142932185D01*
X152078572Y-142935844D01*
X152100401Y-142939513D01*
X152122232Y-142943202D01*
X152144000Y-142946901D01*
X152165768Y-142950621D01*
X152187475Y-142954350D01*
X152209182Y-142958100D01*
X152230828Y-142961860D01*
X152252474Y-142965640D01*
X152274060Y-142969429D01*
X152295646Y-142973240D01*
X152317173Y-142977059D01*
X152338699Y-142980900D01*
X152360166Y-142984750D01*
X152381634Y-142988620D01*
X152403042Y-142992501D01*
X152424451Y-142996401D01*
X152445801Y-143000312D01*
X152467151Y-143004242D01*
X152488444Y-143008183D01*
X152509736Y-143012144D01*
X152530971Y-143016114D01*
X152552207Y-143020105D01*
X152573385Y-143024106D01*
X152594563Y-143028127D01*
X152615685Y-143032158D01*
X152636807Y-143036209D01*
X152657873Y-143040270D01*
X152678939Y-143044351D01*
X152699950Y-143048442D01*
X152720960Y-143052554D01*
X152741916Y-143056675D01*
X152762871Y-143060816D01*
X152783772Y-143064967D01*
X152804672Y-143069139D01*
X152825519Y-143073320D01*
X152846365Y-143077521D01*
X152867158Y-143081732D01*
X152887950Y-143085964D01*
X152908690Y-143090205D01*
X152929428Y-143094467D01*
X152950115Y-143098738D01*
X152970800Y-143103029D01*
X152991434Y-143107330D01*
X153012067Y-143111652D01*
X153032648Y-143115983D01*
X153053228Y-143120335D01*
X153073758Y-143124696D01*
X153094286Y-143129077D01*
X153114764Y-143133468D01*
X153135241Y-143137880D01*
X153155667Y-143142301D01*
X153176093Y-143146742D01*
X153196469Y-143151193D01*
X153216843Y-143155664D01*
X153237169Y-143160145D01*
X153257493Y-143164647D01*
X153277768Y-143169157D01*
X153298042Y-143173689D01*
X153318267Y-143178229D01*
X153338491Y-143182791D01*
X153358666Y-143187361D01*
X153378841Y-143191952D01*
X153398967Y-143196553D01*
X153419093Y-143201174D01*
X153439170Y-143205804D01*
X153459247Y-143210455D01*
X153479276Y-143215116D01*
X153499304Y-143219796D01*
X153519285Y-143224487D01*
X153539264Y-143229197D01*
X153559197Y-143233917D01*
X153579129Y-143238658D01*
X153599014Y-143243408D01*
X153618898Y-143248178D01*
X153638737Y-143252958D01*
X153658573Y-143257758D01*
X153678364Y-143262568D01*
X153698154Y-143267398D01*
X153717899Y-143272237D01*
X153737641Y-143277097D01*
X153757339Y-143281967D01*
X153777036Y-143286856D01*
X153796688Y-143291756D01*
X153816338Y-143296675D01*
X153835944Y-143301604D01*
X153855549Y-143306553D01*
X153875109Y-143311512D01*
X153894668Y-143316491D01*
X153914183Y-143321480D01*
X153933697Y-143326489D01*
X153953167Y-143331508D01*
X153972635Y-143336546D01*
X153992061Y-143341595D01*
X154011484Y-143346663D01*
X154030865Y-143351741D01*
X154050245Y-143356840D01*
X154069581Y-143361948D01*
X154088916Y-143367076D01*
X154108209Y-143372214D01*
X154127500Y-143377371D01*
X154146749Y-143382539D01*
X154165996Y-143387727D01*
X154185202Y-143392924D01*
X154204405Y-143398141D01*
X154223568Y-143403368D01*
X154242728Y-143408616D01*
X154261848Y-143413872D01*
X154280965Y-143419149D01*
X154300042Y-143424436D01*
X154319116Y-143429743D01*
X154338151Y-143435059D01*
X154357183Y-143440396D01*
X154376175Y-143445742D01*
X154395164Y-143451108D01*
X154414114Y-143456484D01*
X154433062Y-143461880D01*
X154451970Y-143467285D01*
X154470876Y-143472711D01*
X154489743Y-143478147D01*
X154508607Y-143483602D01*
X154527433Y-143489067D01*
X154546256Y-143494552D01*
X154565040Y-143500047D01*
X154583822Y-143505562D01*
X154602565Y-143511087D01*
X154621306Y-143516632D01*
X154640009Y-143522186D01*
X154658709Y-143527760D01*
X154677371Y-143533345D01*
X154696031Y-143538949D01*
X154714653Y-143544563D01*
X154733272Y-143550197D01*
X154751854Y-143555840D01*
X154770434Y-143561504D01*
X154788976Y-143567177D01*
X154807515Y-143572870D01*
X154826018Y-143578573D01*
X154844518Y-143584297D01*
X154862981Y-143590029D01*
X154881441Y-143595782D01*
X154899865Y-143601545D01*
X154918287Y-143607327D01*
X154936672Y-143613120D01*
X154955054Y-143618932D01*
X154973400Y-143624754D01*
X154991743Y-143630596D01*
X155010051Y-143636448D01*
X155028355Y-143642320D01*
X155046624Y-143648201D01*
X155064891Y-143654103D01*
X155083121Y-143660014D01*
X155101349Y-143665945D01*
X155119542Y-143671886D01*
X155137732Y-143677847D01*
X155155887Y-143683818D01*
X155174039Y-143689809D01*
X155192156Y-143695809D01*
X155210270Y-143701829D01*
X155228350Y-143707860D01*
X155246427Y-143713910D01*
X155264469Y-143719970D01*
X155282509Y-143726050D01*
X155300514Y-143732139D01*
X155318517Y-143738249D01*
X155336485Y-143744369D01*
X155354450Y-143750508D01*
X155372382Y-143756657D01*
X155390310Y-143762827D01*
X155408205Y-143769005D01*
X155426097Y-143775204D01*
X155443956Y-143781413D01*
X155461811Y-143787642D01*
X155479634Y-143793880D01*
X155497453Y-143800139D01*
X155515239Y-143806407D01*
X155533022Y-143812696D01*
X155550772Y-143818994D01*
X155568519Y-143825312D01*
X155586234Y-143831639D01*
X155603945Y-143837987D01*
X155621624Y-143844345D01*
X155639300Y-143850723D01*
X155656943Y-143857110D01*
X155674583Y-143863517D01*
X155692192Y-143869935D01*
X155709797Y-143876372D01*
X155727370Y-143882819D01*
X155744940Y-143889286D01*
X155762478Y-143895763D01*
X155780013Y-143902260D01*
X155797516Y-143908766D01*
X155815016Y-143915293D01*
X155832485Y-143921829D01*
X155849950Y-143928386D01*
X155867384Y-143934952D01*
X155884815Y-143941538D01*
X155902215Y-143948134D01*
X155919612Y-143954751D01*
X155936977Y-143961377D01*
X155954340Y-143968023D01*
X155971671Y-143974678D01*
X155989000Y-143981354D01*
X156006298Y-143988040D01*
X156023592Y-143994746D01*
X156040856Y-144001461D01*
X156058116Y-144008197D01*
X156075347Y-144014942D01*
X156092574Y-144021708D01*
X156109771Y-144028483D01*
X156126964Y-144035278D01*
X156144128Y-144042083D01*
X156161288Y-144048909D01*
X156178419Y-144055744D01*
X156195546Y-144062599D01*
X156212643Y-144069464D01*
X156229737Y-144076349D01*
X156246802Y-144083244D01*
X156263863Y-144090159D01*
X156280895Y-144097084D01*
X156297923Y-144104029D01*
X156314923Y-144110984D01*
X156331918Y-144117958D01*
X156348885Y-144124943D01*
X156365848Y-144131948D01*
X156382783Y-144138963D01*
X156399713Y-144145998D01*
X156416616Y-144153042D01*
X156433514Y-144160107D01*
X156450384Y-144167182D01*
X156467251Y-144174277D01*
X156484089Y-144181381D01*
X156500923Y-144188506D01*
X156517730Y-144195641D01*
X156534533Y-144202796D01*
X156551307Y-144209960D01*
X156568078Y-144217145D01*
X156584822Y-144224340D01*
X156601561Y-144231555D01*
X156618273Y-144238780D01*
X156634980Y-144246025D01*
X156651661Y-144253280D01*
X156668338Y-144260555D01*
X156684987Y-144267840D01*
X156701632Y-144275145D01*
X156718251Y-144282460D01*
X156734865Y-144289795D01*
X156751452Y-144297140D01*
X156768035Y-144304506D01*
X156784592Y-144311881D01*
X156801144Y-144319276D01*
X156817670Y-144326682D01*
X156834192Y-144334107D01*
X156850687Y-144341543D01*
X156867178Y-144348999D01*
X156883643Y-144356465D01*
X156900104Y-144363950D01*
X156916538Y-144371446D01*
X156932969Y-144378963D01*
X156949373Y-144386489D01*
X156965773Y-144394035D01*
X156982147Y-144401592D01*
X156998517Y-144409168D01*
X157014861Y-144416755D01*
X157031201Y-144424361D01*
X157047515Y-144431978D01*
X157063825Y-144439615D01*
X157080110Y-144447263D01*
X157096390Y-144454930D01*
X157112645Y-144462607D01*
X157128896Y-144470305D01*
X157145121Y-144478013D01*
X157161342Y-144485741D01*
X157177538Y-144493479D01*
X157193729Y-144501237D01*
X157209896Y-144509005D01*
X157226058Y-144516794D01*
X157242196Y-144524593D01*
X157258328Y-144532412D01*
X157274437Y-144540241D01*
X157290541Y-144548090D01*
X157306620Y-144555950D01*
X157322695Y-144563830D01*
X157338745Y-144571720D01*
X157354791Y-144579630D01*
X157370813Y-144587550D01*
X157386830Y-144595491D01*
X157402823Y-144603442D01*
X157418811Y-144611413D01*
X157434775Y-144619395D01*
X157450735Y-144627396D01*
X157466671Y-144635408D01*
X157482602Y-144643440D01*
X157498510Y-144651483D01*
X157514412Y-144659545D01*
X157530292Y-144667618D01*
X157546166Y-144675711D01*
X157562017Y-144683815D01*
X157577864Y-144691939D01*
X157593687Y-144700073D01*
X157609505Y-144708227D01*
X157625300Y-144716392D01*
X157641090Y-144724577D01*
X157656857Y-144732773D01*
X157672620Y-144740988D01*
X157688359Y-144749214D01*
X157704094Y-144757461D01*
X157719805Y-144765717D01*
X157735512Y-144773994D01*
X157751196Y-144782282D01*
X157766876Y-144790590D01*
X157782532Y-144798908D01*
X157798184Y-144807246D01*
X157813813Y-144815595D01*
X157829437Y-144823965D01*
X157845039Y-144832344D01*
X157860636Y-144840744D01*
X157876211Y-144849155D01*
X157891781Y-144857586D01*
X157907328Y-144866027D01*
X157922871Y-144874489D01*
X157938391Y-144882961D01*
X157953907Y-144891454D01*
X157969401Y-144899957D01*
X157984889Y-144908480D01*
X158000356Y-144917015D01*
X158015818Y-144925569D01*
X158031258Y-144934134D01*
X158046693Y-144942719D01*
X158062106Y-144951315D01*
X158077514Y-144959932D01*
X158092901Y-144968559D01*
X158108283Y-144977206D01*
X158123643Y-144985864D01*
X158138998Y-144994542D01*
X158154332Y-145003232D01*
X158169660Y-145011941D01*
X158184968Y-145020661D01*
X158200270Y-145029402D01*
X158215552Y-145038153D01*
X158230828Y-145046925D01*
X158246083Y-145055707D01*
X158261333Y-145064510D01*
X158276562Y-145073324D01*
X158291786Y-145082157D01*
X158306989Y-145091002D01*
X158322187Y-145099867D01*
X158337364Y-145108744D01*
X158352536Y-145117640D01*
X158367687Y-145126547D01*
X158382833Y-145135475D01*
X158397959Y-145144414D01*
X158413079Y-145153372D01*
X158428179Y-145162342D01*
X158443274Y-145171333D01*
X158458348Y-145180334D01*
X158473417Y-145189356D01*
X158488466Y-145198388D01*
X158503510Y-145207441D01*
X158518533Y-145216506D01*
X158533551Y-145225590D01*
X158548549Y-145234686D01*
X158563542Y-145243802D01*
X158578515Y-145252929D01*
X158593482Y-145262076D01*
X158608430Y-145271235D01*
X158623372Y-145280414D01*
X158638295Y-145289604D01*
X158653212Y-145298814D01*
X158668109Y-145308036D01*
X158683002Y-145317278D01*
X158697874Y-145326532D01*
X158712741Y-145335805D01*
X158727589Y-145345090D01*
X158742431Y-145354396D01*
X158757254Y-145363712D01*
X158772071Y-145373049D01*
X158786870Y-145382398D01*
X158801662Y-145391767D01*
X158816436Y-145401147D01*
X158831204Y-145410548D01*
X158845953Y-145419960D01*
X158860696Y-145429392D01*
X158875420Y-145438836D01*
X158890139Y-145448300D01*
X158904839Y-145457776D01*
X158919534Y-145467272D01*
X158934209Y-145476780D01*
X158948879Y-145486308D01*
X158963531Y-145495847D01*
X158978176Y-145505407D01*
X158992803Y-145514979D01*
X159007425Y-145524571D01*
X159022028Y-145534174D01*
X159036625Y-145543798D01*
X159051204Y-145553434D01*
X159065777Y-145563090D01*
X159080332Y-145572758D01*
X159094881Y-145582446D01*
X159109411Y-145592146D01*
X159123937Y-145601866D01*
X159138444Y-145611598D01*
X159152945Y-145621351D01*
X159167428Y-145631115D01*
X159181905Y-145640899D01*
X159196365Y-145650696D01*
X159210818Y-145660513D01*
X159225254Y-145670342D01*
X159239684Y-145680191D01*
X159254096Y-145690052D01*
X159268502Y-145699934D01*
X159282891Y-145709827D01*
X159297273Y-145719741D01*
X159311638Y-145729667D01*
X159325998Y-145739614D01*
X159340339Y-145749572D01*
X159354675Y-145759551D01*
X159368993Y-145769542D01*
X159383305Y-145779553D01*
X159397600Y-145789577D01*
X159411889Y-145799621D01*
X159426161Y-145809677D01*
X159440427Y-145819753D01*
X159454675Y-145829842D01*
X159468918Y-145839951D01*
X159483143Y-145850073D01*
X159497363Y-145860214D01*
X159511565Y-145870369D01*
X159525761Y-145880543D01*
X159539941Y-145890730D01*
X159554114Y-145900937D01*
X159568270Y-145911157D01*
X159582421Y-145921397D01*
X159596554Y-145931650D01*
X159610682Y-145941923D01*
X159624792Y-145952208D01*
X159638897Y-145962514D01*
X159652985Y-145972832D01*
X159667067Y-145983171D01*
X159681132Y-145993522D01*
X159695191Y-146003894D01*
X159709234Y-146014279D01*
X159723270Y-146024683D01*
X159737290Y-146035101D01*
X159751304Y-146045539D01*
X159765302Y-146055989D01*
X159779293Y-146066460D01*
X159793268Y-146076944D01*
X159807237Y-146087448D01*
X159821189Y-146097965D01*
X159835136Y-146108503D01*
X159849066Y-146119053D01*
X159862990Y-146129624D01*
X159876898Y-146140207D01*
X159890800Y-146150811D01*
X159904685Y-146161428D01*
X159918565Y-146172066D01*
X159932428Y-146182716D01*
X159946285Y-146193387D01*
X159960126Y-146204070D01*
X159973961Y-146214775D01*
X159987781Y-146225492D01*
X160001594Y-146236230D01*
X160015391Y-146246981D01*
X160029182Y-146257752D01*
X160042957Y-146268536D01*
X160056726Y-146279341D01*
X160070479Y-146290159D01*
X160084226Y-146300998D01*
X160097957Y-146311850D01*
X160111682Y-146322722D01*
X160125391Y-146333608D01*
X160139095Y-146344514D01*
X160152782Y-146355433D01*
X160166464Y-146366373D01*
X160180129Y-146377326D01*
X160193789Y-146388300D01*
X160207433Y-146399287D01*
X160221071Y-146410295D01*
X160234694Y-146421316D01*
X160248310Y-146432358D01*
X160270000Y-146450000D01*
D10*
X170534466Y-156710000D02*
X160270000Y-146450000D01*
X165810000Y-83000000D02*
G75*
G02*
X163310000Y-80500000I0J2500000D01*
G01*
X160800000Y-52500000D02*
G75*
G02*
X163300000Y-55000000I0J-2500000D01*
G01*
X109000000Y-55000000D02*
G75*
G02*
X106500000Y-57500000I-2500000J0D01*
G01*
X91000000Y-60000000D02*
G75*
G02*
X93500000Y-57500000I2500000J0D01*
G01*
X91000000Y-85000000D02*
G75*
G02*
X88500000Y-87500000I-2500000J0D01*
G01*
X73000000Y-97000000D02*
G75*
G02*
X70500000Y-99500000I-2500000J0D01*
G01*
X56000000Y-102000000D02*
G75*
G02*
X58500000Y-99500000I2500000J0D01*
G01*
X58500000Y-126500000D02*
G75*
G02*
X56000000Y-124000000I0J2500000D01*
G01*
X70500000Y-126500000D02*
G75*
G02*
X73000000Y-129000000I0J-2500000D01*
G01*
X75500000Y-138500000D02*
G75*
G02*
X73000000Y-136000000I0J2500000D01*
G01*
X91000000Y-136000000D02*
G75*
G02*
X88500000Y-138500000I-2500000J0D01*
G01*
X109000000Y-123000000D02*
G75*
G02*
X106500000Y-125500000I-2500000J0D01*
G01*
X109000000Y-123000000D02*
G75*
G02*
X111500000Y-120500000I2500000J0D01*
G01*
X124500000Y-120500000D02*
G75*
G02*
X127000000Y-123000000I0J-2500000D01*
G01*
X127000000Y-123000000D02*
G75*
G02*
X124500000Y-125500000I-2500000J0D01*
G01*
X118000000Y-128000000D02*
G75*
G02*
X120500000Y-125500000I2500000J0D01*
G01*
X118000000Y-128000000D02*
X118000000Y-140000000D01*
X120500000Y-142500000D02*
G75*
G02*
X118000000Y-140000000I0J2500000D01*
G01*
X124500000Y-125500000D02*
X120500000Y-125500000D01*
X111500000Y-120500000D02*
X124500000Y-120500000D01*
X93500000Y-125500000D02*
X106500000Y-125500000D01*
X165810000Y-83000000D02*
X182348664Y-83000000D01*
X163300000Y-55000000D02*
X163310000Y-80500000D01*
X111500000Y-52500000D02*
X160800000Y-52500000D01*
X93500000Y-57500000D02*
X106500000Y-57500000D01*
X91000000Y-85000000D02*
X91000000Y-60000000D01*
X75500000Y-87500000D02*
X88500000Y-87500000D01*
X73000000Y-97000000D02*
X73000000Y-90000000D01*
X58500000Y-99500000D02*
X70500000Y-99500000D01*
X56000000Y-124000000D02*
X56000000Y-102000000D01*
X70500000Y-126500000D02*
X58500000Y-126500000D01*
X73000000Y-136000000D02*
X73000000Y-129000000D01*
X88500000Y-138500081D02*
X75500000Y-138500000D01*
X120500000Y-142500000D02*
X145000000Y-142500000D01*
M02*
