M48
; DRILL file {KiCad 7.0.10} date Wed May  1 10:45:10 2024
; FORMAT={-:-/ absolute / inch / decimal}
; #@! TF.CreationDate,2024-05-01T10:45:10+02:00
; #@! TF.GenerationSoftware,Kicad,Pcbnew,7.0.10
; #@! TF.FileFunction,Plated,1,2,PTH
FMAT,2
INCH
; #@! TA.AperFunction,Plated,PTH,ViaDrill
T1C0.0157
; #@! TA.AperFunction,Plated,PTH,ViaDrill
T2C0.0197
; #@! TA.AperFunction,Plated,PTH,ComponentDrill
T3C0.0430
; #@! TA.AperFunction,Plated,PTH,ComponentDrill
T4C0.0433
; #@! TA.AperFunction,Plated,PTH,ComponentDrill
T5C0.0787
; #@! TA.AperFunction,Plated,PTH,ComponentDrill
T6C0.0866
%
G90
G05
T1
X3.665Y-4.3264
X4.5276Y-5.3535
X4.7028Y-3.8587
X4.7634Y-4.2831
X4.8472Y-3.7173
X5.2724Y-4.0921
X5.2787Y-4.8492
X5.435Y-2.5177
X5.4886Y-3.1449
X6.0283Y-3.9075
X6.0295Y-4.6488
X6.0339Y-2.4913
X6.0638Y-3.2118
X6.7665Y-3.3354
X6.7697Y-4.8441
X6.7709Y-4.1004
X6.9766Y-5.3663
X7.3406Y-2.2047
X7.4256Y-2.8087
X7.5197Y-4.472
X7.6051Y-3.7913
X7.6169Y-5.4071
X7.6673Y-2.6283
X8.6623Y-5.6836
T2
X7.7244Y-2.6232
T3
X6.4933Y-1.9343
X6.4933Y-2.5343
X6.5933Y-1.9343
X6.5933Y-2.5343
X6.6933Y-1.9343
X6.6933Y-2.0343
X6.6933Y-2.1343
X6.6933Y-2.2343
X6.6933Y-2.3343
X6.6933Y-2.4343
X6.6933Y-2.5343
X6.7933Y-1.9343
X6.7933Y-2.5343
X6.8933Y-1.9343
X6.8933Y-2.5343
X6.9933Y-1.9343
X6.9933Y-2.5343
X7.0933Y-1.9343
X7.0933Y-2.5343
X7.1933Y-1.9343
X7.1933Y-2.5343
X7.2933Y-1.9343
X7.2933Y-2.5343
X7.3094Y-3.2583
X7.3933Y-1.9343
X7.3933Y-2.5343
X7.4768Y-3.2583
X7.4933Y-1.9343
X7.4933Y-2.5343
X7.5933Y-1.9343
X7.5933Y-2.5343
T4
X4.2815Y-3.1398
X4.2815Y-3.3169
X4.5374Y-3.1398
X4.5374Y-3.3169
T5
X7.2047Y-3.0315
X7.4016Y-3.0315
X7.5984Y-3.0315
T6
X4.4094Y-4.9803
X4.685Y-3.4646
X5.4331Y-4.4685
X6.3386Y-2.9134
X7.0866Y-4.0945
X8.0079Y-5.5709
M30
