%TF.GenerationSoftware,KiCad,Pcbnew,7.0.10*%
%TF.CreationDate,2024-05-01T10:45:41+02:00*%
%TF.ProjectId,talon,74616c6f-6e2e-46b6-9963-61645f706362,rev?*%
%TF.SameCoordinates,Original*%
%TF.FileFunction,Legend,Top*%
%TF.FilePolarity,Positive*%
%FSLAX46Y46*%
G04 Gerber Fmt 4.6, Leading zero omitted, Abs format (unit mm)*
G04 Created by KiCad (PCBNEW 7.0.10) date 2024-05-01 10:45:41*
%MOMM*%
%LPD*%
G01*
G04 APERTURE LIST*
%ADD10C,0.150000*%
%ADD11C,0.100000*%
%ADD12C,0.381000*%
%ADD13C,0.120000*%
G04 APERTURE END LIST*
D10*
X108642856Y-78204819D02*
X108309523Y-77728628D01*
X108071428Y-78204819D02*
X108071428Y-77204819D01*
X108071428Y-77204819D02*
X108452380Y-77204819D01*
X108452380Y-77204819D02*
X108547618Y-77252438D01*
X108547618Y-77252438D02*
X108595237Y-77300057D01*
X108595237Y-77300057D02*
X108642856Y-77395295D01*
X108642856Y-77395295D02*
X108642856Y-77538152D01*
X108642856Y-77538152D02*
X108595237Y-77633390D01*
X108595237Y-77633390D02*
X108547618Y-77681009D01*
X108547618Y-77681009D02*
X108452380Y-77728628D01*
X108452380Y-77728628D02*
X108071428Y-77728628D01*
X109071428Y-77681009D02*
X109404761Y-77681009D01*
X109547618Y-78204819D02*
X109071428Y-78204819D01*
X109071428Y-78204819D02*
X109071428Y-77204819D01*
X109071428Y-77204819D02*
X109547618Y-77204819D01*
X109928571Y-78157200D02*
X110071428Y-78204819D01*
X110071428Y-78204819D02*
X110309523Y-78204819D01*
X110309523Y-78204819D02*
X110404761Y-78157200D01*
X110404761Y-78157200D02*
X110452380Y-78109580D01*
X110452380Y-78109580D02*
X110499999Y-78014342D01*
X110499999Y-78014342D02*
X110499999Y-77919104D01*
X110499999Y-77919104D02*
X110452380Y-77823866D01*
X110452380Y-77823866D02*
X110404761Y-77776247D01*
X110404761Y-77776247D02*
X110309523Y-77728628D01*
X110309523Y-77728628D02*
X110119047Y-77681009D01*
X110119047Y-77681009D02*
X110023809Y-77633390D01*
X110023809Y-77633390D02*
X109976190Y-77585771D01*
X109976190Y-77585771D02*
X109928571Y-77490533D01*
X109928571Y-77490533D02*
X109928571Y-77395295D01*
X109928571Y-77395295D02*
X109976190Y-77300057D01*
X109976190Y-77300057D02*
X110023809Y-77252438D01*
X110023809Y-77252438D02*
X110119047Y-77204819D01*
X110119047Y-77204819D02*
X110357142Y-77204819D01*
X110357142Y-77204819D02*
X110499999Y-77252438D01*
X110928571Y-77681009D02*
X111261904Y-77681009D01*
X111404761Y-78204819D02*
X110928571Y-78204819D01*
X110928571Y-78204819D02*
X110928571Y-77204819D01*
X110928571Y-77204819D02*
X111404761Y-77204819D01*
X111690476Y-77204819D02*
X112261904Y-77204819D01*
X111976190Y-78204819D02*
X111976190Y-77204819D01*
X112357143Y-78300057D02*
X113119047Y-78300057D01*
X113309524Y-78157200D02*
X113452381Y-78204819D01*
X113452381Y-78204819D02*
X113690476Y-78204819D01*
X113690476Y-78204819D02*
X113785714Y-78157200D01*
X113785714Y-78157200D02*
X113833333Y-78109580D01*
X113833333Y-78109580D02*
X113880952Y-78014342D01*
X113880952Y-78014342D02*
X113880952Y-77919104D01*
X113880952Y-77919104D02*
X113833333Y-77823866D01*
X113833333Y-77823866D02*
X113785714Y-77776247D01*
X113785714Y-77776247D02*
X113690476Y-77728628D01*
X113690476Y-77728628D02*
X113500000Y-77681009D01*
X113500000Y-77681009D02*
X113404762Y-77633390D01*
X113404762Y-77633390D02*
X113357143Y-77585771D01*
X113357143Y-77585771D02*
X113309524Y-77490533D01*
X113309524Y-77490533D02*
X113309524Y-77395295D01*
X113309524Y-77395295D02*
X113357143Y-77300057D01*
X113357143Y-77300057D02*
X113404762Y-77252438D01*
X113404762Y-77252438D02*
X113500000Y-77204819D01*
X113500000Y-77204819D02*
X113738095Y-77204819D01*
X113738095Y-77204819D02*
X113880952Y-77252438D01*
X114214286Y-77204819D02*
X114452381Y-78204819D01*
X114452381Y-78204819D02*
X114642857Y-77490533D01*
X114642857Y-77490533D02*
X114833333Y-78204819D01*
X114833333Y-78204819D02*
X115071429Y-77204819D01*
X115976190Y-78204819D02*
X115404762Y-78204819D01*
X115690476Y-78204819D02*
X115690476Y-77204819D01*
X115690476Y-77204819D02*
X115595238Y-77347676D01*
X115595238Y-77347676D02*
X115500000Y-77442914D01*
X115500000Y-77442914D02*
X115404762Y-77490533D01*
D11*
X187636666Y-81747419D02*
X187636666Y-82461704D01*
X187636666Y-82461704D02*
X187589047Y-82604561D01*
X187589047Y-82604561D02*
X187493809Y-82699800D01*
X187493809Y-82699800D02*
X187350952Y-82747419D01*
X187350952Y-82747419D02*
X187255714Y-82747419D01*
X188636666Y-82747419D02*
X188065238Y-82747419D01*
X188350952Y-82747419D02*
X188350952Y-81747419D01*
X188350952Y-81747419D02*
X188255714Y-81890276D01*
X188255714Y-81890276D02*
X188160476Y-81985514D01*
X188160476Y-81985514D02*
X188065238Y-82033133D01*
X191703884Y-82771466D02*
X192465789Y-82771466D01*
X183213884Y-82781466D02*
X183975789Y-82781466D01*
X183594836Y-83162419D02*
X183594836Y-82400514D01*
D10*
%TO.C,SW3*%
X109460001Y-98634999D02*
G75*
G03*
X111999999Y-100618171I2539999J634999D01*
G01*
X105650000Y-102445000D02*
G75*
G03*
X108190000Y-104985000I2540001J1D01*
G01*
X119000000Y-105000000D02*
X118000000Y-105000000D01*
X119000000Y-104604000D02*
X119000000Y-105000000D01*
X119000000Y-91000000D02*
X119000000Y-92000000D01*
X118000000Y-91000000D02*
X119000000Y-91000000D01*
X117080000Y-104985000D02*
X108190000Y-104985000D01*
X117080000Y-104604000D02*
X117080000Y-104985000D01*
X117080000Y-100540000D02*
X117080000Y-101556000D01*
X112000000Y-100540000D02*
X117080000Y-100540000D01*
X107809000Y-98635000D02*
X109460001Y-98634999D01*
X106000000Y-105000000D02*
X105000000Y-105000000D01*
X105650000Y-102445000D02*
X105650000Y-102064000D01*
X105650000Y-99016000D02*
X105650000Y-98635000D01*
X105650000Y-98635000D02*
X106031000Y-98635000D01*
X105000000Y-105000000D02*
X105000000Y-104000000D01*
X105000000Y-92000000D02*
X105000000Y-91000000D01*
X105000000Y-91000000D02*
X106000000Y-91000000D01*
%TO.C,SW1*%
X128460001Y-66634999D02*
G75*
G03*
X130999999Y-68618171I2539999J634999D01*
G01*
X124650000Y-70445000D02*
G75*
G03*
X127190000Y-72985000I2540001J1D01*
G01*
X138000000Y-73000000D02*
X137000000Y-73000000D01*
X138000000Y-72604000D02*
X138000000Y-73000000D01*
X138000000Y-59000000D02*
X138000000Y-60000000D01*
X137000000Y-59000000D02*
X138000000Y-59000000D01*
X136080000Y-72985000D02*
X127190000Y-72985000D01*
X136080000Y-72604000D02*
X136080000Y-72985000D01*
X136080000Y-68540000D02*
X136080000Y-69556000D01*
X131000000Y-68540000D02*
X136080000Y-68540000D01*
X126809000Y-66635000D02*
X128460001Y-66634999D01*
X125000000Y-73000000D02*
X124000000Y-73000000D01*
X124650000Y-70445000D02*
X124650000Y-70064000D01*
X124650000Y-67016000D02*
X124650000Y-66635000D01*
X124650000Y-66635000D02*
X125031000Y-66635000D01*
X124000000Y-73000000D02*
X124000000Y-72000000D01*
X124000000Y-60000000D02*
X124000000Y-59000000D01*
X124000000Y-59000000D02*
X125000000Y-59000000D01*
%TO.C,SW10*%
X128460001Y-104634999D02*
G75*
G03*
X130999999Y-106618171I2539999J634999D01*
G01*
X124650000Y-108445000D02*
G75*
G03*
X127190000Y-110985000I2540001J1D01*
G01*
X138000000Y-111000000D02*
X137000000Y-111000000D01*
X138000000Y-110604000D02*
X138000000Y-111000000D01*
X138000000Y-97000000D02*
X138000000Y-98000000D01*
X137000000Y-97000000D02*
X138000000Y-97000000D01*
X136080000Y-110985000D02*
X127190000Y-110985000D01*
X136080000Y-110604000D02*
X136080000Y-110985000D01*
X136080000Y-106540000D02*
X136080000Y-107556000D01*
X131000000Y-106540000D02*
X136080000Y-106540000D01*
X126809000Y-104635000D02*
X128460001Y-104634999D01*
X125000000Y-111000000D02*
X124000000Y-111000000D01*
X124650000Y-108445000D02*
X124650000Y-108064000D01*
X124650000Y-105016000D02*
X124650000Y-104635000D01*
X124650000Y-104635000D02*
X125031000Y-104635000D01*
X124000000Y-111000000D02*
X124000000Y-110000000D01*
X124000000Y-98000000D02*
X124000000Y-97000000D01*
X124000000Y-97000000D02*
X125000000Y-97000000D01*
%TO.C,SW7*%
X185460001Y-95134999D02*
G75*
G03*
X187999999Y-97118171I2539999J634999D01*
G01*
X181650000Y-98945000D02*
G75*
G03*
X184190000Y-101485000I2540001J1D01*
G01*
X195000000Y-101500000D02*
X194000000Y-101500000D01*
X195000000Y-101104000D02*
X195000000Y-101500000D01*
X195000000Y-87500000D02*
X195000000Y-88500000D01*
X194000000Y-87500000D02*
X195000000Y-87500000D01*
X193080000Y-101485000D02*
X184190000Y-101485000D01*
X193080000Y-101104000D02*
X193080000Y-101485000D01*
X193080000Y-97040000D02*
X193080000Y-98056000D01*
X188000000Y-97040000D02*
X193080000Y-97040000D01*
X183809000Y-95135000D02*
X185460001Y-95134999D01*
X182000000Y-101500000D02*
X181000000Y-101500000D01*
X181650000Y-98945000D02*
X181650000Y-98564000D01*
X181650000Y-95516000D02*
X181650000Y-95135000D01*
X181650000Y-95135000D02*
X182031000Y-95135000D01*
X181000000Y-101500000D02*
X181000000Y-100500000D01*
X181000000Y-88500000D02*
X181000000Y-87500000D01*
X181000000Y-87500000D02*
X182000000Y-87500000D01*
%TO.C,SW13*%
X185460001Y-114134999D02*
G75*
G03*
X187999999Y-116118171I2539999J634999D01*
G01*
X181650000Y-117945000D02*
G75*
G03*
X184190000Y-120485000I2540001J1D01*
G01*
X195000000Y-120500000D02*
X194000000Y-120500000D01*
X195000000Y-120104000D02*
X195000000Y-120500000D01*
X195000000Y-106500000D02*
X195000000Y-107500000D01*
X194000000Y-106500000D02*
X195000000Y-106500000D01*
X193080000Y-120485000D02*
X184190000Y-120485000D01*
X193080000Y-120104000D02*
X193080000Y-120485000D01*
X193080000Y-116040000D02*
X193080000Y-117056000D01*
X188000000Y-116040000D02*
X193080000Y-116040000D01*
X183809000Y-114135000D02*
X185460001Y-114134999D01*
X182000000Y-120500000D02*
X181000000Y-120500000D01*
X181650000Y-117945000D02*
X181650000Y-117564000D01*
X181650000Y-114516000D02*
X181650000Y-114135000D01*
X181650000Y-114135000D02*
X182031000Y-114135000D01*
X181000000Y-120500000D02*
X181000000Y-119500000D01*
X181000000Y-107500000D02*
X181000000Y-106500000D01*
X181000000Y-106500000D02*
X182000000Y-106500000D01*
%TO.C,SW6*%
X166460001Y-85634999D02*
G75*
G03*
X168999999Y-87618171I2539999J634999D01*
G01*
X162650000Y-89445000D02*
G75*
G03*
X165190000Y-91985000I2540001J1D01*
G01*
X176000000Y-92000000D02*
X175000000Y-92000000D01*
X176000000Y-91604000D02*
X176000000Y-92000000D01*
X176000000Y-78000000D02*
X176000000Y-79000000D01*
X175000000Y-78000000D02*
X176000000Y-78000000D01*
X174080000Y-91985000D02*
X165190000Y-91985000D01*
X174080000Y-91604000D02*
X174080000Y-91985000D01*
X174080000Y-87540000D02*
X174080000Y-88556000D01*
X169000000Y-87540000D02*
X174080000Y-87540000D01*
X164809000Y-85635000D02*
X166460001Y-85634999D01*
X163000000Y-92000000D02*
X162000000Y-92000000D01*
X162650000Y-89445000D02*
X162650000Y-89064000D01*
X162650000Y-86016000D02*
X162650000Y-85635000D01*
X162650000Y-85635000D02*
X163031000Y-85635000D01*
X162000000Y-92000000D02*
X162000000Y-91000000D01*
X162000000Y-79000000D02*
X162000000Y-78000000D01*
X162000000Y-78000000D02*
X163000000Y-78000000D01*
%TO.C,SW5*%
X147460001Y-80634999D02*
G75*
G03*
X149999999Y-82618171I2539999J634999D01*
G01*
X143650000Y-84445000D02*
G75*
G03*
X146190000Y-86985000I2540001J1D01*
G01*
X157000000Y-87000000D02*
X156000000Y-87000000D01*
X157000000Y-86604000D02*
X157000000Y-87000000D01*
X157000000Y-73000000D02*
X157000000Y-74000000D01*
X156000000Y-73000000D02*
X157000000Y-73000000D01*
X155080000Y-86985000D02*
X146190000Y-86985000D01*
X155080000Y-86604000D02*
X155080000Y-86985000D01*
X155080000Y-82540000D02*
X155080000Y-83556000D01*
X150000000Y-82540000D02*
X155080000Y-82540000D01*
X145809000Y-80635000D02*
X147460001Y-80634999D01*
X144000000Y-87000000D02*
X143000000Y-87000000D01*
X143650000Y-84445000D02*
X143650000Y-84064000D01*
X143650000Y-81016000D02*
X143650000Y-80635000D01*
X143650000Y-80635000D02*
X144031000Y-80635000D01*
X143000000Y-87000000D02*
X143000000Y-86000000D01*
X143000000Y-74000000D02*
X143000000Y-73000000D01*
X143000000Y-73000000D02*
X144000000Y-73000000D01*
D12*
%TO.C,U1*%
X163660000Y-47860000D02*
X163660000Y-65640000D01*
X163660000Y-65640000D02*
X194140000Y-65640000D01*
X194140000Y-47860000D02*
X163660000Y-47860000D01*
X194140000Y-65640000D02*
X196680000Y-65640000D01*
X196680000Y-47860000D02*
X194140000Y-47860000D01*
X196680000Y-65640000D02*
X196680000Y-47860000D01*
D13*
%TO.C,RESET_SW1*%
X115500000Y-82750000D02*
X115500000Y-81250000D01*
X114250000Y-78750000D02*
X109750000Y-78750000D01*
X109750000Y-85250000D02*
X114250000Y-85250000D01*
X108500000Y-81250000D02*
X108500000Y-82750000D01*
D10*
%TO.C,SW17*%
X166460001Y-123634999D02*
G75*
G03*
X168999999Y-125618171I2539999J634999D01*
G01*
X162650000Y-127445000D02*
G75*
G03*
X165190000Y-129985000I2540001J1D01*
G01*
X176000000Y-130000000D02*
X175000000Y-130000000D01*
X176000000Y-129604000D02*
X176000000Y-130000000D01*
X176000000Y-116000000D02*
X176000000Y-117000000D01*
X175000000Y-116000000D02*
X176000000Y-116000000D01*
X174080000Y-129985000D02*
X165190000Y-129985000D01*
X174080000Y-129604000D02*
X174080000Y-129985000D01*
X174080000Y-125540000D02*
X174080000Y-126556000D01*
X169000000Y-125540000D02*
X174080000Y-125540000D01*
X164809000Y-123635000D02*
X166460001Y-123634999D01*
X163000000Y-130000000D02*
X162000000Y-130000000D01*
X162650000Y-127445000D02*
X162650000Y-127064000D01*
X162650000Y-124016000D02*
X162650000Y-123635000D01*
X162650000Y-123635000D02*
X163031000Y-123635000D01*
X162000000Y-130000000D02*
X162000000Y-129000000D01*
X162000000Y-117000000D02*
X162000000Y-116000000D01*
X162000000Y-116000000D02*
X163000000Y-116000000D01*
%TO.C,SW12*%
X166460001Y-104634999D02*
G75*
G03*
X168999999Y-106618171I2539999J634999D01*
G01*
X162650000Y-108445000D02*
G75*
G03*
X165190000Y-110985000I2540001J1D01*
G01*
X176000000Y-111000000D02*
X175000000Y-111000000D01*
X176000000Y-110604000D02*
X176000000Y-111000000D01*
X176000000Y-97000000D02*
X176000000Y-98000000D01*
X175000000Y-97000000D02*
X176000000Y-97000000D01*
X174080000Y-110985000D02*
X165190000Y-110985000D01*
X174080000Y-110604000D02*
X174080000Y-110985000D01*
X174080000Y-106540000D02*
X174080000Y-107556000D01*
X169000000Y-106540000D02*
X174080000Y-106540000D01*
X164809000Y-104635000D02*
X166460001Y-104634999D01*
X163000000Y-111000000D02*
X162000000Y-111000000D01*
X162650000Y-108445000D02*
X162650000Y-108064000D01*
X162650000Y-105016000D02*
X162650000Y-104635000D01*
X162650000Y-104635000D02*
X163031000Y-104635000D01*
X162000000Y-111000000D02*
X162000000Y-110000000D01*
X162000000Y-98000000D02*
X162000000Y-97000000D01*
X162000000Y-97000000D02*
X163000000Y-97000000D01*
%TO.C,SW9*%
X109460001Y-117634999D02*
G75*
G03*
X111999999Y-119618171I2539999J634999D01*
G01*
X105650000Y-121445000D02*
G75*
G03*
X108190000Y-123985000I2540001J1D01*
G01*
X119000000Y-124000000D02*
X118000000Y-124000000D01*
X119000000Y-123604000D02*
X119000000Y-124000000D01*
X119000000Y-110000000D02*
X119000000Y-111000000D01*
X118000000Y-110000000D02*
X119000000Y-110000000D01*
X117080000Y-123985000D02*
X108190000Y-123985000D01*
X117080000Y-123604000D02*
X117080000Y-123985000D01*
X117080000Y-119540000D02*
X117080000Y-120556000D01*
X112000000Y-119540000D02*
X117080000Y-119540000D01*
X107809000Y-117635000D02*
X109460001Y-117634999D01*
X106000000Y-124000000D02*
X105000000Y-124000000D01*
X105650000Y-121445000D02*
X105650000Y-121064000D01*
X105650000Y-118016000D02*
X105650000Y-117635000D01*
X105650000Y-117635000D02*
X106031000Y-117635000D01*
X105000000Y-124000000D02*
X105000000Y-123000000D01*
X105000000Y-111000000D02*
X105000000Y-110000000D01*
X105000000Y-110000000D02*
X106000000Y-110000000D01*
%TO.C,SW15*%
X128460001Y-123634999D02*
G75*
G03*
X130999999Y-125618171I2539999J634999D01*
G01*
X124650000Y-127445000D02*
G75*
G03*
X127190000Y-129985000I2540001J1D01*
G01*
X138000000Y-130000000D02*
X137000000Y-130000000D01*
X138000000Y-129604000D02*
X138000000Y-130000000D01*
X138000000Y-116000000D02*
X138000000Y-117000000D01*
X137000000Y-116000000D02*
X138000000Y-116000000D01*
X136080000Y-129985000D02*
X127190000Y-129985000D01*
X136080000Y-129604000D02*
X136080000Y-129985000D01*
X136080000Y-125540000D02*
X136080000Y-126556000D01*
X131000000Y-125540000D02*
X136080000Y-125540000D01*
X126809000Y-123635000D02*
X128460001Y-123634999D01*
X125000000Y-130000000D02*
X124000000Y-130000000D01*
X124650000Y-127445000D02*
X124650000Y-127064000D01*
X124650000Y-124016000D02*
X124650000Y-123635000D01*
X124650000Y-123635000D02*
X125031000Y-123635000D01*
X124000000Y-130000000D02*
X124000000Y-129000000D01*
X124000000Y-117000000D02*
X124000000Y-116000000D01*
X124000000Y-116000000D02*
X125000000Y-116000000D01*
%TO.C,SW14*%
X109460001Y-136634999D02*
G75*
G03*
X111999999Y-138618171I2539999J634999D01*
G01*
X105650000Y-140445000D02*
G75*
G03*
X108190000Y-142985000I2540001J1D01*
G01*
X119000000Y-143000000D02*
X118000000Y-143000000D01*
X119000000Y-142604000D02*
X119000000Y-143000000D01*
X119000000Y-129000000D02*
X119000000Y-130000000D01*
X118000000Y-129000000D02*
X119000000Y-129000000D01*
X117080000Y-142985000D02*
X108190000Y-142985000D01*
X117080000Y-142604000D02*
X117080000Y-142985000D01*
X117080000Y-138540000D02*
X117080000Y-139556000D01*
X112000000Y-138540000D02*
X117080000Y-138540000D01*
X107809000Y-136635000D02*
X109460001Y-136634999D01*
X106000000Y-143000000D02*
X105000000Y-143000000D01*
X105650000Y-140445000D02*
X105650000Y-140064000D01*
X105650000Y-137016000D02*
X105650000Y-136635000D01*
X105650000Y-136635000D02*
X106031000Y-136635000D01*
X105000000Y-143000000D02*
X105000000Y-142000000D01*
X105000000Y-130000000D02*
X105000000Y-129000000D01*
X105000000Y-129000000D02*
X106000000Y-129000000D01*
%TO.C,SW19*%
X187860001Y-138134999D02*
G75*
G03*
X190399999Y-140118171I2539999J634999D01*
G01*
X184050000Y-141945000D02*
G75*
G03*
X186590000Y-144485000I2540001J1D01*
G01*
X197400000Y-144500000D02*
X196400000Y-144500000D01*
X197400000Y-144104000D02*
X197400000Y-144500000D01*
X197400000Y-130500000D02*
X197400000Y-131500000D01*
X196400000Y-130500000D02*
X197400000Y-130500000D01*
X195480000Y-144485000D02*
X186590000Y-144485000D01*
X195480000Y-144104000D02*
X195480000Y-144485000D01*
X195480000Y-140040000D02*
X195480000Y-141056000D01*
X190400000Y-140040000D02*
X195480000Y-140040000D01*
X186209000Y-138135000D02*
X187860001Y-138134999D01*
X184400000Y-144500000D02*
X183400000Y-144500000D01*
X184050000Y-141945000D02*
X184050000Y-141564000D01*
X184050000Y-138516000D02*
X184050000Y-138135000D01*
X184050000Y-138135000D02*
X184431000Y-138135000D01*
X183400000Y-144500000D02*
X183400000Y-143500000D01*
X183400000Y-131500000D02*
X183400000Y-130500000D01*
X183400000Y-130500000D02*
X184400000Y-130500000D01*
%TO.C,SW11*%
X147460001Y-99634999D02*
G75*
G03*
X149999999Y-101618171I2539999J634999D01*
G01*
X143650000Y-103445000D02*
G75*
G03*
X146190000Y-105985000I2540001J1D01*
G01*
X157000000Y-106000000D02*
X156000000Y-106000000D01*
X157000000Y-105604000D02*
X157000000Y-106000000D01*
X157000000Y-92000000D02*
X157000000Y-93000000D01*
X156000000Y-92000000D02*
X157000000Y-92000000D01*
X155080000Y-105985000D02*
X146190000Y-105985000D01*
X155080000Y-105604000D02*
X155080000Y-105985000D01*
X155080000Y-101540000D02*
X155080000Y-102556000D01*
X150000000Y-101540000D02*
X155080000Y-101540000D01*
X145809000Y-99635000D02*
X147460001Y-99634999D01*
X144000000Y-106000000D02*
X143000000Y-106000000D01*
X143650000Y-103445000D02*
X143650000Y-103064000D01*
X143650000Y-100016000D02*
X143650000Y-99635000D01*
X143650000Y-99635000D02*
X144031000Y-99635000D01*
X143000000Y-106000000D02*
X143000000Y-105000000D01*
X143000000Y-93000000D02*
X143000000Y-92000000D01*
X143000000Y-92000000D02*
X144000000Y-92000000D01*
%TO.C,SW4*%
X128460001Y-85634999D02*
G75*
G03*
X130999999Y-87618171I2539999J634999D01*
G01*
X124650000Y-89445000D02*
G75*
G03*
X127190000Y-91985000I2540001J1D01*
G01*
X138000000Y-92000000D02*
X137000000Y-92000000D01*
X138000000Y-91604000D02*
X138000000Y-92000000D01*
X138000000Y-78000000D02*
X138000000Y-79000000D01*
X137000000Y-78000000D02*
X138000000Y-78000000D01*
X136080000Y-91985000D02*
X127190000Y-91985000D01*
X136080000Y-91604000D02*
X136080000Y-91985000D01*
X136080000Y-87540000D02*
X136080000Y-88556000D01*
X131000000Y-87540000D02*
X136080000Y-87540000D01*
X126809000Y-85635000D02*
X128460001Y-85634999D01*
X125000000Y-92000000D02*
X124000000Y-92000000D01*
X124650000Y-89445000D02*
X124650000Y-89064000D01*
X124650000Y-86016000D02*
X124650000Y-85635000D01*
X124650000Y-85635000D02*
X125031000Y-85635000D01*
X124000000Y-92000000D02*
X124000000Y-91000000D01*
X124000000Y-79000000D02*
X124000000Y-78000000D01*
X124000000Y-78000000D02*
X125000000Y-78000000D01*
%TO.C,SW2*%
X147460001Y-61634999D02*
G75*
G03*
X149999999Y-63618171I2539999J634999D01*
G01*
X143650000Y-65445000D02*
G75*
G03*
X146190000Y-67985000I2540001J1D01*
G01*
X157000000Y-68000000D02*
X156000000Y-68000000D01*
X157000000Y-67604000D02*
X157000000Y-68000000D01*
X157000000Y-54000000D02*
X157000000Y-55000000D01*
X156000000Y-54000000D02*
X157000000Y-54000000D01*
X155080000Y-67985000D02*
X146190000Y-67985000D01*
X155080000Y-67604000D02*
X155080000Y-67985000D01*
X155080000Y-63540000D02*
X155080000Y-64556000D01*
X150000000Y-63540000D02*
X155080000Y-63540000D01*
X145809000Y-61635000D02*
X147460001Y-61634999D01*
X144000000Y-68000000D02*
X143000000Y-68000000D01*
X143650000Y-65445000D02*
X143650000Y-65064000D01*
X143650000Y-62016000D02*
X143650000Y-61635000D01*
X143650000Y-61635000D02*
X144031000Y-61635000D01*
X143000000Y-68000000D02*
X143000000Y-67000000D01*
X143000000Y-55000000D02*
X143000000Y-54000000D01*
X143000000Y-54000000D02*
X144000000Y-54000000D01*
%TO.C,SW20*%
X214882950Y-143979631D02*
G75*
G03*
X216091066Y-146967106I2517202J-720074D01*
G01*
X209678392Y-145374189D02*
G75*
G03*
X210608095Y-148843892I2199705J-1269999D01*
G01*
X219962330Y-154261883D02*
X219096304Y-153761883D01*
X220160330Y-153918937D02*
X219962330Y-154261883D01*
X226962330Y-142137527D02*
X226462330Y-143003553D01*
X226096304Y-141637527D02*
X226962330Y-142137527D01*
X218307061Y-153288892D02*
X210608095Y-148843892D01*
X218497561Y-152958937D02*
X218307061Y-153288892D01*
X220529561Y-149439410D02*
X220021561Y-150319291D01*
X216130152Y-146899410D02*
X220529561Y-149439410D01*
X213453140Y-143154131D02*
X214882949Y-143979631D01*
X208704000Y-147761883D02*
X207837974Y-147261883D01*
X209678391Y-145374188D02*
X209868891Y-145044232D01*
X211392891Y-142404587D02*
X211583391Y-142074631D01*
X211583391Y-142074631D02*
X211913346Y-142265131D01*
X207837974Y-147261883D02*
X208337974Y-146395857D01*
X214337974Y-136003553D02*
X214837974Y-135137527D01*
X214837974Y-135137527D02*
X215704000Y-135637527D01*
%TO.C,SW8*%
X93634999Y-119539999D02*
G75*
G03*
X95618171Y-117000001I-634999J2539999D01*
G01*
X97445000Y-123350000D02*
G75*
G03*
X99985000Y-120810000I-1J2540001D01*
G01*
X100000000Y-110000000D02*
X100000000Y-111000000D01*
X99604000Y-110000000D02*
X100000000Y-110000000D01*
X86000000Y-110000000D02*
X87000000Y-110000000D01*
X86000000Y-111000000D02*
X86000000Y-110000000D01*
X99985000Y-111920000D02*
X99985000Y-120810000D01*
X99604000Y-111920000D02*
X99985000Y-111920000D01*
X95540000Y-111920000D02*
X96556000Y-111920000D01*
X95540000Y-117000000D02*
X95540000Y-111920000D01*
X93635000Y-121191000D02*
X93634999Y-119539999D01*
X100000000Y-123000000D02*
X100000000Y-124000000D01*
X97445000Y-123350000D02*
X97064000Y-123350000D01*
X94016000Y-123350000D02*
X93635000Y-123350000D01*
X93635000Y-123350000D02*
X93635000Y-122969000D01*
X100000000Y-124000000D02*
X99000000Y-124000000D01*
X87000000Y-124000000D02*
X86000000Y-124000000D01*
X86000000Y-124000000D02*
X86000000Y-123000000D01*
%TO.C,SW16*%
X147460001Y-118634999D02*
G75*
G03*
X149999999Y-120618171I2539999J634999D01*
G01*
X143650000Y-122445000D02*
G75*
G03*
X146190000Y-124985000I2540001J1D01*
G01*
X157000000Y-125000000D02*
X156000000Y-125000000D01*
X157000000Y-124604000D02*
X157000000Y-125000000D01*
X157000000Y-111000000D02*
X157000000Y-112000000D01*
X156000000Y-111000000D02*
X157000000Y-111000000D01*
X155080000Y-124985000D02*
X146190000Y-124985000D01*
X155080000Y-124604000D02*
X155080000Y-124985000D01*
X155080000Y-120540000D02*
X155080000Y-121556000D01*
X150000000Y-120540000D02*
X155080000Y-120540000D01*
X145809000Y-118635000D02*
X147460001Y-118634999D01*
X144000000Y-125000000D02*
X143000000Y-125000000D01*
X143650000Y-122445000D02*
X143650000Y-122064000D01*
X143650000Y-119016000D02*
X143650000Y-118635000D01*
X143650000Y-118635000D02*
X144031000Y-118635000D01*
X143000000Y-125000000D02*
X143000000Y-124000000D01*
X143000000Y-112000000D02*
X143000000Y-111000000D01*
X143000000Y-111000000D02*
X144000000Y-111000000D01*
%TO.C,SW18*%
X164060001Y-142634999D02*
G75*
G03*
X166599999Y-144618171I2539999J634999D01*
G01*
X160250000Y-146445000D02*
G75*
G03*
X162790000Y-148985000I2540001J1D01*
G01*
X173600000Y-149000000D02*
X172600000Y-149000000D01*
X173600000Y-148604000D02*
X173600000Y-149000000D01*
X173600000Y-135000000D02*
X173600000Y-136000000D01*
X172600000Y-135000000D02*
X173600000Y-135000000D01*
X171680000Y-148985000D02*
X162790000Y-148985000D01*
X171680000Y-148604000D02*
X171680000Y-148985000D01*
X171680000Y-144540000D02*
X171680000Y-145556000D01*
X166600000Y-144540000D02*
X171680000Y-144540000D01*
X162409000Y-142635000D02*
X164060001Y-142634999D01*
X160600000Y-149000000D02*
X159600000Y-149000000D01*
X160250000Y-146445000D02*
X160250000Y-146064000D01*
X160250000Y-143016000D02*
X160250000Y-142635000D01*
X160250000Y-142635000D02*
X160631000Y-142635000D01*
X159600000Y-149000000D02*
X159600000Y-148000000D01*
X159600000Y-136000000D02*
X159600000Y-135000000D01*
X159600000Y-135000000D02*
X160600000Y-135000000D01*
%TD*%
M02*
