%TF.GenerationSoftware,KiCad,Pcbnew,7.0.10*%
%TF.CreationDate,2024-05-01T10:45:41+02:00*%
%TF.ProjectId,talon,74616c6f-6e2e-46b6-9963-61645f706362,rev?*%
%TF.SameCoordinates,Original*%
%TF.FileFunction,Soldermask,Bot*%
%TF.FilePolarity,Negative*%
%FSLAX46Y46*%
G04 Gerber Fmt 4.6, Leading zero omitted, Abs format (unit mm)*
G04 Created by KiCad (PCBNEW 7.0.10) date 2024-05-01 10:45:41*
%MOMM*%
%LPD*%
G01*
G04 APERTURE LIST*
G04 Aperture macros list*
%AMRotRect*
0 Rectangle, with rotation*
0 The origin of the aperture is its center*
0 $1 length*
0 $2 width*
0 $3 Rotation angle, in degrees counterclockwise*
0 Add horizontal line*
21,1,$1,$2,0,0,$3*%
%AMFreePoly0*
4,1,19,0.500000,-0.750000,0.000000,-0.750000,0.000000,-0.744911,-0.071157,-0.744911,-0.207708,-0.704816,-0.327430,-0.627875,-0.420627,-0.520320,-0.479746,-0.390866,-0.500000,-0.250000,-0.500000,0.250000,-0.479746,0.390866,-0.420627,0.520320,-0.327430,0.627875,-0.207708,0.704816,-0.071157,0.744911,0.000000,0.744911,0.000000,0.750000,0.500000,0.750000,0.500000,-0.750000,0.500000,-0.750000,
$1*%
%AMFreePoly1*
4,1,19,0.000000,0.744911,0.071157,0.744911,0.207708,0.704816,0.327430,0.627875,0.420627,0.520320,0.479746,0.390866,0.500000,0.250000,0.500000,-0.250000,0.479746,-0.390866,0.420627,-0.520320,0.327430,-0.627875,0.207708,-0.704816,0.071157,-0.744911,0.000000,-0.744911,0.000000,-0.750000,-0.500000,-0.750000,-0.500000,0.750000,0.000000,0.750000,0.000000,0.744911,0.000000,0.744911,
$1*%
G04 Aperture macros list end*
%ADD10R,2.550000X2.500000*%
%ADD11C,1.701800*%
%ADD12C,3.000000*%
%ADD13C,3.987800*%
%ADD14C,3.800000*%
%ADD15C,4.000000*%
%ADD16C,1.752600*%
%ADD17C,2.000000*%
%ADD18RotRect,2.550000X2.500000X330.000000*%
%ADD19R,2.500000X2.550000*%
%ADD20FreePoly0,180.000000*%
%ADD21FreePoly1,180.000000*%
%ADD22FreePoly0,90.000000*%
%ADD23FreePoly1,90.000000*%
%ADD24FreePoly0,0.000000*%
%ADD25FreePoly1,0.000000*%
G04 APERTURE END LIST*
%TO.C,JP2*%
G36*
X194860000Y-45470000D02*
G01*
X194560000Y-45470000D01*
X194560000Y-46970000D01*
X194860000Y-46970000D01*
X194860000Y-45470000D01*
G37*
G36*
X194110000Y-45470000D02*
G01*
X193810000Y-45470000D01*
X193810000Y-46970000D01*
X194110000Y-46970000D01*
X194110000Y-45470000D01*
G37*
%TO.C,JP8*%
G36*
X194010000Y-68510000D02*
G01*
X192510000Y-68510000D01*
X192510000Y-68210000D01*
X194010000Y-68210000D01*
X194010000Y-68510000D01*
G37*
G36*
X194010000Y-67760000D02*
G01*
X192510000Y-67760000D01*
X192510000Y-67460000D01*
X194010000Y-67460000D01*
X194010000Y-67760000D01*
G37*
%TO.C,JP6*%
G36*
X189080000Y-45630000D02*
G01*
X188780000Y-45630000D01*
X188780000Y-47130000D01*
X189080000Y-47130000D01*
X189080000Y-45630000D01*
G37*
G36*
X188490000Y-45630000D02*
G01*
X188190000Y-45630000D01*
X188190000Y-47130000D01*
X188490000Y-47130000D01*
X188490000Y-45630000D01*
G37*
%TO.C,JP7*%
G36*
X184510000Y-47120000D02*
G01*
X184810000Y-47120000D01*
X184810000Y-45620000D01*
X184510000Y-45620000D01*
X184510000Y-47120000D01*
G37*
G36*
X185100000Y-47120000D02*
G01*
X185400000Y-47120000D01*
X185400000Y-45620000D01*
X185100000Y-45620000D01*
X185100000Y-47120000D01*
G37*
%TO.C,JP12*%
G36*
X186690000Y-68090000D02*
G01*
X186990000Y-68090000D01*
X186990000Y-66590000D01*
X186690000Y-66590000D01*
X186690000Y-68090000D01*
G37*
G36*
X187280000Y-68090000D02*
G01*
X187580000Y-68090000D01*
X187580000Y-66590000D01*
X187280000Y-66590000D01*
X187280000Y-68090000D01*
G37*
%TO.C,JP11*%
G36*
X191090000Y-68190000D02*
G01*
X189590000Y-68190000D01*
X189590000Y-67890000D01*
X191090000Y-67890000D01*
X191090000Y-68190000D01*
G37*
G36*
X191090000Y-67600000D02*
G01*
X189590000Y-67600000D01*
X189590000Y-67300000D01*
X191090000Y-67300000D01*
X191090000Y-67600000D01*
G37*
%TD*%
D10*
%TO.C,SW3*%
X104440000Y-95460000D03*
X118290000Y-92920000D03*
D11*
X117080000Y-98000000D03*
D12*
X114540000Y-103080000D03*
X114540000Y-92920000D03*
D13*
X112000000Y-98000000D03*
D12*
X108190000Y-100540000D03*
X108190000Y-95460000D03*
D11*
X106920000Y-98000000D03*
%TD*%
D10*
%TO.C,SW1*%
X123440000Y-63460000D03*
X137290000Y-60920000D03*
D11*
X136080000Y-66000000D03*
D12*
X133540000Y-71080000D03*
X133540000Y-60920000D03*
D13*
X131000000Y-66000000D03*
D12*
X127190000Y-68540000D03*
X127190000Y-63460000D03*
D11*
X125920000Y-66000000D03*
%TD*%
D10*
%TO.C,SW10*%
X123440000Y-101460000D03*
X137290000Y-98920000D03*
D11*
X136080000Y-104000000D03*
D12*
X133540000Y-109080000D03*
X133540000Y-98920000D03*
D13*
X131000000Y-104000000D03*
D12*
X127190000Y-106540000D03*
X127190000Y-101460000D03*
D11*
X125920000Y-104000000D03*
%TD*%
D10*
%TO.C,SW7*%
X180440000Y-91960000D03*
X194290000Y-89420000D03*
D11*
X193080000Y-94500000D03*
D12*
X190540000Y-99580000D03*
X190540000Y-89420000D03*
D13*
X188000000Y-94500000D03*
D12*
X184190000Y-97040000D03*
X184190000Y-91960000D03*
D11*
X182920000Y-94500000D03*
%TD*%
D10*
%TO.C,SW13*%
X180440000Y-110960000D03*
X194290000Y-108420000D03*
D11*
X193080000Y-113500000D03*
D12*
X190540000Y-118580000D03*
X190540000Y-108420000D03*
D13*
X188000000Y-113500000D03*
D12*
X184190000Y-116040000D03*
X184190000Y-110960000D03*
D11*
X182920000Y-113500000D03*
%TD*%
D14*
%TO.C,MOUNT5*%
X203400000Y-141500000D03*
%TD*%
D15*
%TO.C,HOLE1*%
X178500000Y-142000000D03*
%TD*%
D10*
%TO.C,SW6*%
X161440000Y-82460000D03*
X175290000Y-79920000D03*
D11*
X174080000Y-85000000D03*
D12*
X171540000Y-90080000D03*
X171540000Y-79920000D03*
D13*
X169000000Y-85000000D03*
D12*
X165190000Y-87540000D03*
X165190000Y-82460000D03*
D11*
X163920000Y-85000000D03*
%TD*%
D15*
%TO.C,HOLE4*%
X138000000Y-75500000D03*
%TD*%
D10*
%TO.C,SW5*%
X142440000Y-77460000D03*
X156290000Y-74920000D03*
D11*
X155080000Y-80000000D03*
D12*
X152540000Y-85080000D03*
X152540000Y-74920000D03*
D13*
X150000000Y-80000000D03*
D12*
X146190000Y-82540000D03*
X146190000Y-77460000D03*
D11*
X144920000Y-80000000D03*
%TD*%
D14*
%TO.C,MOUNT1*%
X119000000Y-88000000D03*
%TD*%
%TO.C,MOUNT2*%
X112000000Y-126500000D03*
%TD*%
D15*
%TO.C,REF\u002A\u002A*%
X157000000Y-108500000D03*
%TD*%
D16*
%TO.C,U1*%
X170010000Y-56750000D03*
X170010000Y-54210000D03*
X170010000Y-59290000D03*
X170010000Y-51670000D03*
X170010000Y-61830000D03*
X192870000Y-64370000D03*
X190330000Y-64370000D03*
X187790000Y-64370000D03*
X185250000Y-64370000D03*
X182710000Y-64370000D03*
X180170000Y-64370000D03*
X177630000Y-64370000D03*
X175090000Y-64370000D03*
X172550000Y-64370000D03*
X170010000Y-64370000D03*
X167470000Y-64370000D03*
X164930000Y-64370000D03*
X164930000Y-49130000D03*
X167470000Y-49130000D03*
X170010000Y-49130000D03*
X172550000Y-49130000D03*
X175090000Y-49130000D03*
X177630000Y-49130000D03*
X180170000Y-49130000D03*
X182710000Y-49130000D03*
X185250000Y-49130000D03*
X187790000Y-49130000D03*
X190330000Y-49130000D03*
X192870000Y-49130000D03*
%TD*%
D14*
%TO.C,MOUNT6*%
X180000000Y-104000000D03*
%TD*%
D17*
%TO.C,RESET_SW1*%
X115250000Y-84250000D03*
X108750000Y-84250000D03*
X115250000Y-79750000D03*
X108750000Y-79750000D03*
%TD*%
D14*
%TO.C,MOUNT4*%
X161000000Y-74000000D03*
%TD*%
D10*
%TO.C,SW17*%
X161440000Y-120460000D03*
X175290000Y-117920000D03*
D11*
X174080000Y-123000000D03*
D12*
X171540000Y-128080000D03*
X171540000Y-117920000D03*
D13*
X169000000Y-123000000D03*
D12*
X165190000Y-125540000D03*
X165190000Y-120460000D03*
D11*
X163920000Y-123000000D03*
%TD*%
D14*
%TO.C,MOUNT3*%
X138000000Y-113500000D03*
%TD*%
D10*
%TO.C,SW12*%
X161440000Y-101460000D03*
X175290000Y-98920000D03*
D11*
X174080000Y-104000000D03*
D12*
X171540000Y-109080000D03*
X171540000Y-98920000D03*
D13*
X169000000Y-104000000D03*
D12*
X165190000Y-106540000D03*
X165190000Y-101460000D03*
D11*
X163920000Y-104000000D03*
%TD*%
D10*
%TO.C,SW9*%
X104440000Y-114460000D03*
X118290000Y-111920000D03*
D11*
X117080000Y-117000000D03*
D12*
X114540000Y-122080000D03*
X114540000Y-111920000D03*
D13*
X112000000Y-117000000D03*
D12*
X108190000Y-119540000D03*
X108190000Y-114460000D03*
D11*
X106920000Y-117000000D03*
%TD*%
D10*
%TO.C,SW15*%
X123440000Y-120460000D03*
X137290000Y-117920000D03*
D11*
X136080000Y-123000000D03*
D12*
X133540000Y-128080000D03*
X133540000Y-117920000D03*
D13*
X131000000Y-123000000D03*
D12*
X127190000Y-125540000D03*
X127190000Y-120460000D03*
D11*
X125920000Y-123000000D03*
%TD*%
D12*
%TO.C,SLIDE_SW1*%
X183000000Y-77000000D03*
X188000000Y-77000000D03*
X193000000Y-77000000D03*
%TD*%
D10*
%TO.C,SW14*%
X104440000Y-133460000D03*
X118290000Y-130920000D03*
D11*
X117080000Y-136000000D03*
D12*
X114540000Y-141080000D03*
X114540000Y-130920000D03*
D13*
X112000000Y-136000000D03*
D12*
X108190000Y-138540000D03*
X108190000Y-133460000D03*
D11*
X106920000Y-136000000D03*
%TD*%
D10*
%TO.C,SW19*%
X182840000Y-134960000D03*
X196690000Y-132420000D03*
D11*
X195480000Y-137500000D03*
D12*
X192940000Y-142580000D03*
X192940000Y-132420000D03*
D13*
X190400000Y-137500000D03*
D12*
X186590000Y-140040000D03*
X186590000Y-134960000D03*
D11*
X185320000Y-137500000D03*
%TD*%
D10*
%TO.C,SW11*%
X142440000Y-96460000D03*
X156290000Y-93920000D03*
D11*
X155080000Y-99000000D03*
D12*
X152540000Y-104080000D03*
X152540000Y-93920000D03*
D13*
X150000000Y-99000000D03*
D12*
X146190000Y-101540000D03*
X146190000Y-96460000D03*
D11*
X144920000Y-99000000D03*
%TD*%
D10*
%TO.C,SW4*%
X123440000Y-82460000D03*
X137290000Y-79920000D03*
D11*
X136080000Y-85000000D03*
D12*
X133540000Y-90080000D03*
X133540000Y-79920000D03*
D13*
X131000000Y-85000000D03*
D12*
X127190000Y-87540000D03*
X127190000Y-82460000D03*
D11*
X125920000Y-85000000D03*
%TD*%
D10*
%TO.C,SW2*%
X142440000Y-58460000D03*
X156290000Y-55920000D03*
D11*
X155080000Y-61000000D03*
D12*
X152540000Y-66080000D03*
X152540000Y-55920000D03*
D13*
X150000000Y-61000000D03*
D12*
X146190000Y-63540000D03*
X146190000Y-58460000D03*
D11*
X144920000Y-61000000D03*
%TD*%
D18*
%TO.C,SW20*%
X212123000Y-138720000D03*
X225387452Y-143445296D03*
D11*
X221799561Y-147239705D03*
D12*
X217059857Y-150369114D03*
X222139857Y-141570296D03*
D13*
X217400152Y-144699705D03*
D12*
X212830595Y-144994410D03*
X215370595Y-140595000D03*
D11*
X213000743Y-142159705D03*
%TD*%
D19*
%TO.C,SW8*%
X90460000Y-124560000D03*
X87920000Y-110710000D03*
D11*
X93000000Y-111920000D03*
D12*
X98080000Y-114460000D03*
X87920000Y-114460000D03*
D13*
X93000000Y-117000000D03*
D12*
X95540000Y-120810000D03*
X90460000Y-120810000D03*
D11*
X93000000Y-122080000D03*
%TD*%
D17*
%TO.C,J1*%
X189910000Y-82760000D03*
X185660000Y-82760000D03*
%TD*%
D10*
%TO.C,SW16*%
X142440000Y-115460000D03*
X156290000Y-112920000D03*
D11*
X155080000Y-118000000D03*
D12*
X152540000Y-123080000D03*
X152540000Y-112920000D03*
D13*
X150000000Y-118000000D03*
D12*
X146190000Y-120540000D03*
X146190000Y-115460000D03*
D11*
X144920000Y-118000000D03*
%TD*%
D15*
%TO.C,HOLE3*%
X175000000Y-74000000D03*
%TD*%
%TO.C,HOLE2*%
X122500000Y-113500000D03*
%TD*%
D10*
%TO.C,SW18*%
X159040000Y-139460000D03*
X172890000Y-136920000D03*
D11*
X171680000Y-142000000D03*
D12*
X169140000Y-147080000D03*
X169140000Y-136920000D03*
D13*
X166600000Y-142000000D03*
D12*
X162790000Y-144540000D03*
X162790000Y-139460000D03*
D11*
X161520000Y-142000000D03*
%TD*%
D20*
%TO.C,JP2*%
X195250000Y-46220000D03*
D21*
X193450000Y-46220000D03*
%TD*%
D22*
%TO.C,JP8*%
X193260000Y-68900000D03*
D23*
X193260000Y-67100000D03*
%TD*%
D20*
%TO.C,JP6*%
X189390000Y-46380000D03*
D21*
X187890000Y-46380000D03*
%TD*%
D24*
%TO.C,JP7*%
X184200000Y-46370000D03*
D25*
X185700000Y-46370000D03*
%TD*%
D24*
%TO.C,JP12*%
X186380000Y-67340000D03*
D25*
X187880000Y-67340000D03*
%TD*%
D22*
%TO.C,JP11*%
X190340000Y-68500000D03*
D23*
X190340000Y-67000000D03*
%TD*%
M02*
